<?xml version="1.0" encoding="utf-8"?>
<!-- Generated by Mocodo 4.3.2 -->
<svg width="949" height="438" viewBox="0 0 949 438" xmlns="http://www.w3.org/2000/svg">
<rect x="0" y="0" width="949" height="438" fill="none" stroke="none" stroke-width="0"/>

<!-- Association ARTICLEJEU -->
<g>
	<line x1="480" y1="89" x2="220" y2="89" stroke="#726f83" stroke-width="1"/>
	<line x1="71" y1="89" x2="220" y2="89" stroke="#726f83" stroke-width="1"/>
	<g>
		<path d="M256 63 a14 14 90 0 1 14 14 V89 h-100 V77 a14 14 90 0 1 14 -14" fill="#b2bba4" stroke="#b2bba4" stroke-width="0"/>
		<path d="M270 89 v12 a14 14 90 0 1 -14 14 H184 a14 14 90 0 1 -14 -14 V89 H100" fill="#ccd6ba" stroke="#ccd6ba" stroke-width="0"/>
		<rect x="170" y="63" width="100" height="52" fill="none" rx="14" stroke="#85956b" stroke-width="1.5"/>
		<line x1="170" y1="89" x2="270" y2="89" stroke="#85956b" stroke-width="1"/>
		<text x="178" y="81.6" fill="#27360c" font-family="Courier New" font-size="14">ArticleJeu</text>
	</g>
	<text x="366" y="81" fill="#726f83" font-family="Courier New" font-size="12">1,1</text>
	<text x="124" y="81" fill="#726f83" font-family="Courier New" font-size="12">0,1</text>
</g>

<!-- Association AVISARTICLE -->
<g>
	<line x1="480" y1="89" x2="667" y2="89" stroke="#726f83" stroke-width="1"/>
	<line x1="867" y1="89" x2="667" y2="89" stroke="#726f83" stroke-width="1"/>
	<g>
		<path d="M707 63 a14 14 90 0 1 14 14 V89 h-108 V77 a14 14 90 0 1 14 -14" fill="#b2bba4" stroke="#b2bba4" stroke-width="0"/>
		<path d="M721 89 v12 a14 14 90 0 1 -14 14 H627 a14 14 90 0 1 -14 -14 V89 H108" fill="#ccd6ba" stroke="#ccd6ba" stroke-width="0"/>
		<rect x="613" y="63" width="108" height="52" fill="none" rx="14" stroke="#85956b" stroke-width="1.5"/>
		<line x1="613" y1="89" x2="721" y2="89" stroke="#85956b" stroke-width="1"/>
		<text x="620" y="81.6" fill="#27360c" font-family="Courier New" font-size="14">AvisArticle</text>
	</g>
	<text x="571" y="81" fill="#726f83" font-family="Courier New" font-size="12">0,N</text>
	<text x="766" y="105" fill="#726f83" font-family="Courier New" font-size="12">1,1</text>
	<line x1="766" y1="104" x2="789" y2="104" stroke="#726f83" stroke-width="1"/>
</g>

<!-- Association CATEGORIESJEU -->
<g>
	<line x1="71" y1="89" x2="71" y2="219" stroke="#726f83" stroke-width="1"/>
	<line x1="71" y1="349" x2="71" y2="219" stroke="#726f83" stroke-width="1"/>
	<g>
		<path d="M119 193 a14 14 90 0 1 14 14 V219 h-124 V207 a14 14 90 0 1 14 -14" fill="#b2bba4" stroke="#b2bba4" stroke-width="0"/>
		<path d="M133 219 v12 a14 14 90 0 1 -14 14 H23 a14 14 90 0 1 -14 -14 V219 H124" fill="#ccd6ba" stroke="#ccd6ba" stroke-width="0"/>
		<rect x="9" y="193" width="124" height="52" fill="none" rx="14" stroke="#85956b" stroke-width="1.5"/>
		<line x1="9" y1="219" x2="133" y2="219" stroke="#85956b" stroke-width="1"/>
		<text x="16" y="211.6" fill="#27360c" font-family="Courier New" font-size="14">CategoriesJeu</text>
	</g>
	<text x="43" y="167" fill="#726f83" font-family="Courier New" font-size="12">1,N</text>
	<text x="76" y="306" fill="#726f83" font-family="Courier New" font-size="12">0,N</text>
</g>

<!-- Association SUPPORTSJEU -->
<g>
	<line x1="71" y1="89" x2="220" y2="219" stroke="#726f83" stroke-width="1"/>
	<line x1="220" y1="349" x2="220" y2="219" stroke="#726f83" stroke-width="1"/>
	<g>
		<path d="M260 193 a14 14 90 0 1 14 14 V219 h-108 V207 a14 14 90 0 1 14 -14" fill="#b2bba4" stroke="#b2bba4" stroke-width="0"/>
		<path d="M274 219 v12 a14 14 90 0 1 -14 14 H180 a14 14 90 0 1 -14 -14 V219 H108" fill="#ccd6ba" stroke="#ccd6ba" stroke-width="0"/>
		<rect x="166" y="193" width="108" height="52" fill="none" rx="14" stroke="#85956b" stroke-width="1.5"/>
		<line x1="166" y1="219" x2="274" y2="219" stroke="#85956b" stroke-width="1"/>
		<text x="173" y="211.6" fill="#27360c" font-family="Courier New" font-size="14">SupportsJeu</text>
	</g>
	<text x="124" y="129.27" fill="#726f83" font-family="Courier New" font-size="12">1,N</text>
	<text x="225" y="306" fill="#726f83" font-family="Courier New" font-size="12">0,N</text>
</g>

<!-- Association JAQUETTE -->
<g>
	<line x1="480" y1="89" x2="348" y2="219" stroke="#726f83" stroke-width="1"/>
	<line x1="480" y1="349" x2="348" y2="219" stroke="#726f83" stroke-width="1"/>
	<g>
		<path d="M375 193 a14 14 90 0 1 14 14 V219 h-82 V207 a14 14 90 0 1 14 -14" fill="#b2bba4" stroke="#b2bba4" stroke-width="0"/>
		<path d="M389 219 v12 a14 14 90 0 1 -14 14 H321 a14 14 90 0 1 -14 -14 V219 H82" fill="#ccd6ba" stroke="#ccd6ba" stroke-width="0"/>
		<rect x="307" y="193" width="82" height="52" fill="none" rx="14" stroke="#85956b" stroke-width="1.5"/>
		<line x1="307" y1="219" x2="389" y2="219" stroke="#85956b" stroke-width="1"/>
		<text x="314" y="211.6" fill="#27360c" font-family="Courier New" font-size="14">jaquette</text>
	</g>
	<text x="396.77" y="185" fill="#726f83" font-family="Courier New" font-size="12">1,1</text>
	<text x="442.47" y="306" fill="#726f83" font-family="Courier New" font-size="12">0,1</text>
</g>

<!-- Association IMAGEARTICLE -->
<g>
	<line x1="480" y1="89" x2="480" y2="219" stroke="#726f83" stroke-width="1"/>
	<line x1="480" y1="349" x2="480" y2="219" stroke="#726f83" stroke-width="1"/>
	<g>
		<path d="M524 193 a14 14 90 0 1 14 14 V219 h-116 V207 a14 14 90 0 1 14 -14" fill="#b2bba4" stroke="#b2bba4" stroke-width="0"/>
		<path d="M538 219 v12 a14 14 90 0 1 -14 14 H436 a14 14 90 0 1 -14 -14 V219 H116" fill="#ccd6ba" stroke="#ccd6ba" stroke-width="0"/>
		<rect x="422" y="193" width="116" height="52" fill="none" rx="14" stroke="#85956b" stroke-width="1.5"/>
		<line x1="422" y1="219" x2="538" y2="219" stroke="#85956b" stroke-width="1"/>
		<text x="429" y="211.6" fill="#27360c" font-family="Courier New" font-size="14">ImageArticle</text>
	</g>
	<text x="485" y="185" fill="#726f83" font-family="Courier New" font-size="12">0,N</text>
	<text x="485" y="306" fill="#726f83" font-family="Courier New" font-size="12">0,1</text>
</g>

<!-- Association ADMINISTRATEURARTICLE -->
<g>
	<line x1="480" y1="89" x2="667" y2="219" stroke="#726f83" stroke-width="1"/>
	<line x1="867" y1="349" x2="667" y2="219" stroke="#726f83" stroke-width="1"/>
	<g>
		<path d="M749 193 a14 14 90 0 1 14 14 V219 h-192 V207 a14 14 90 0 1 14 -14" fill="#b2bba4" stroke="#b2bba4" stroke-width="0"/>
		<path d="M763 219 v12 a14 14 90 0 1 -14 14 H585 a14 14 90 0 1 -14 -14 V219 H192" fill="#ccd6ba" stroke="#ccd6ba" stroke-width="0"/>
		<rect x="571" y="193" width="192" height="52" fill="none" rx="14" stroke="#85956b" stroke-width="1.5"/>
		<line x1="571" y1="219" x2="763" y2="219" stroke="#85956b" stroke-width="1"/>
		<text x="578" y="211.6" fill="#27360c" font-family="Courier New" font-size="14">AdministrateurArticle</text>
	</g>
	<text x="571" y="146.09" fill="#726f83" font-family="Courier New" font-size="12">1,1</text>
	<text x="779" y="321.0" fill="#726f83" font-family="Courier New" font-size="12">0,N</text>
</g>

<!-- Association AVISUTILISATEUR -->
<g>
	<line x1="867" y1="349" x2="867" y2="219" stroke="#726f83" stroke-width="1"/>
	<line x1="867" y1="89" x2="867" y2="219" stroke="#726f83" stroke-width="1"/>
	<g>
		<path d="M924 193 a14 14 90 0 1 14 14 V219 h-142 V207 a14 14 90 0 1 14 -14" fill="#b2bba4" stroke="#b2bba4" stroke-width="0"/>
		<path d="M938 219 v12 a14 14 90 0 1 -14 14 H810 a14 14 90 0 1 -14 -14 V219 H142" fill="#ccd6ba" stroke="#ccd6ba" stroke-width="0"/>
		<rect x="796" y="193" width="142" height="52" fill="none" rx="14" stroke="#85956b" stroke-width="1.5"/>
		<line x1="796" y1="219" x2="938" y2="219" stroke="#85956b" stroke-width="1"/>
		<text x="804" y="211.6" fill="#27360c" font-family="Courier New" font-size="14">AvisUtilisateur</text>
	</g>
	<text x="872" y="261" fill="#726f83" font-family="Courier New" font-size="12">0,N</text>
	<text x="872" y="158" fill="#726f83" font-family="Courier New" font-size="12">1,1</text>
</g>

<!-- Association IMAGEUTILISATEUR -->
<g>
	<line x1="480" y1="349" x2="667" y2="349" stroke="#726f83" stroke-width="1"/>
	<line x1="867" y1="349" x2="667" y2="349" stroke="#726f83" stroke-width="1"/>
	<g>
		<path d="M728 323 a14 14 90 0 1 14 14 V349 h-150 V337 a14 14 90 0 1 14 -14" fill="#b2bba4" stroke="#b2bba4" stroke-width="0"/>
		<path d="M742 349 v12 a14 14 90 0 1 -14 14 H606 a14 14 90 0 1 -14 -14 V349 H150" fill="#ccd6ba" stroke="#ccd6ba" stroke-width="0"/>
		<rect x="592" y="323" width="150" height="52" fill="none" rx="14" stroke="#85956b" stroke-width="1.5"/>
		<line x1="592" y1="349" x2="742" y2="349" stroke="#85956b" stroke-width="1"/>
		<text x="599" y="341.6" fill="#27360c" font-family="Courier New" font-size="14">ImageUtilisateur</text>
	</g>
	<text x="529" y="365" fill="#726f83" font-family="Courier New" font-size="12">0,1</text>
	<text x="779" y="365" fill="#726f83" font-family="Courier New" font-size="12">0,1</text>
</g>

<!-- Entity JEU -->
<g>
	<g>
		<rect x="23" y="27" width="96" height="26" fill="#97b8ff" stroke="none" stroke-width="0" opacity="1"/>
		<rect x="23" y="53" width="96" height="98" fill="#c0d4ff" stroke="none" stroke-width="0" opacity="1"/>
		<rect x="23" y="27" width="96" height="124" fill="none" stroke="#578dff" stroke-width="1.5" opacity="1"/>
		<line x1="23" y1="53" x2="119" y2="53" stroke="#578dff" stroke-width="1"/>
	</g>
	<text x="58" y="45.6" fill="#131114" font-family="Courier New" font-size="14">Jeu</text>
	<text x="28" y="71.6" fill="#3e3c42" font-family="Courier New" font-size="14">idJeu</text>
	<line x1="28" y1="74" x2="71" y2="74" stroke="#3e3c42" stroke-width="1"/>
	<text x="28" y="89.6" fill="#3e3c42" font-family="Courier New" font-size="14">nom</text>
	<text x="28" y="107.6" fill="#3e3c42" font-family="Courier New" font-size="14">prix</text>
	<text x="28" y="125.6" fill="#3e3c42" font-family="Courier New" font-size="14">dateSortie</text>
	<text x="28" y="143.6" fill="#3e3c42" font-family="Courier New" font-size="14">synopsis</text>
</g>

<!-- Entity ARTICLE -->
<g>
	<g>
		<rect x="394" y="9" width="172" height="26" fill="#97b8ff" stroke="none" stroke-width="0" opacity="1"/>
		<rect x="394" y="35" width="172" height="134" fill="#c0d4ff" stroke="none" stroke-width="0" opacity="1"/>
		<rect x="394" y="9" width="172" height="160" fill="none" stroke="#578dff" stroke-width="1.5" opacity="1"/>
		<line x1="394" y1="35" x2="566" y2="35" stroke="#578dff" stroke-width="1"/>
	</g>
	<text x="450" y="27.6" fill="#131114" font-family="Courier New" font-size="14">Article</text>
	<text x="399" y="53.6" fill="#3e3c42" font-family="Courier New" font-size="14">idArticle</text>
	<line x1="399" y1="56" x2="476" y2="56" stroke="#3e3c42" stroke-width="1"/>
	<text x="399" y="71.6" fill="#3e3c42" font-family="Courier New" font-size="14">titre</text>
	<text x="399" y="89.6" fill="#3e3c42" font-family="Courier New" font-size="14">contenu</text>
	<text x="399" y="107.6" fill="#3e3c42" font-family="Courier New" font-size="14">noteArticle</text>
	<text x="399" y="125.6" fill="#3e3c42" font-family="Courier New" font-size="14">caractéristiques</text>
	<text x="399" y="143.6" fill="#3e3c42" font-family="Courier New" font-size="14">dateCreationArticle</text>
	<text x="399" y="161.6" fill="#3e3c42" font-family="Courier New" font-size="14">dateModification</text>
</g>

<!-- Entity AVIS -->
<g>
	<g>
		<rect x="794" y="36" width="146" height="26" fill="#97b8ff" stroke="none" stroke-width="0" opacity="1"/>
		<rect x="794" y="62" width="146" height="80" fill="#c0d4ff" stroke="none" stroke-width="0" opacity="1"/>
		<rect x="794" y="36" width="146" height="106" fill="none" stroke="#578dff" stroke-width="1.5" opacity="1"/>
		<line x1="794" y1="62" x2="940" y2="62" stroke="#578dff" stroke-width="1"/>
	</g>
	<text x="850" y="54.6" fill="#131114" font-family="Courier New" font-size="14">Avis</text>
	<text x="799" y="80.6" fill="#3e3c42" font-family="Courier New" font-size="14">titre</text>
	<line x1="799" y1="83" x2="842" y2="83" stroke="#3e3c42" stroke-width="1" stroke-dasharray="4"/>
	<text x="799" y="98.6" fill="#3e3c42" font-family="Courier New" font-size="14">texte</text>
	<text x="799" y="116.6" fill="#3e3c42" font-family="Courier New" font-size="14">noteAvis</text>
	<text x="799" y="134.6" fill="#3e3c42" font-family="Courier New" font-size="14">dateCreationAvis</text>
</g>

<!-- Entity CATEGORIE -->
<g>
	<g>
		<rect x="15" y="314" width="112" height="26" fill="#97b8ff" stroke="none" stroke-width="0" opacity="1"/>
		<rect x="15" y="340" width="112" height="44" fill="#c0d4ff" stroke="none" stroke-width="0" opacity="1"/>
		<rect x="15" y="314" width="112" height="70" fill="none" stroke="#578dff" stroke-width="1.5" opacity="1"/>
		<line x1="15" y1="340" x2="127" y2="340" stroke="#578dff" stroke-width="1"/>
	</g>
	<text x="33" y="332.6" fill="#131114" font-family="Courier New" font-size="14">Categorie</text>
	<text x="20" y="358.6" fill="#3e3c42" font-family="Courier New" font-size="14">idCategorie</text>
	<line x1="20" y1="361" x2="114" y2="361" stroke="#3e3c42" stroke-width="1"/>
	<text x="20" y="376.6" fill="#3e3c42" font-family="Courier New" font-size="14">nomCategorie</text>
</g>

<!-- Entity SUPPORT -->
<g>
	<g>
		<rect x="172" y="314" width="96" height="26" fill="#97b8ff" stroke="none" stroke-width="0" opacity="1"/>
		<rect x="172" y="340" width="96" height="44" fill="#c0d4ff" stroke="none" stroke-width="0" opacity="1"/>
		<rect x="172" y="314" width="96" height="70" fill="none" stroke="#578dff" stroke-width="1.5" opacity="1"/>
		<line x1="172" y1="340" x2="268" y2="340" stroke="#578dff" stroke-width="1"/>
	</g>
	<text x="190" y="332.6" fill="#131114" font-family="Courier New" font-size="14">Support</text>
	<text x="177" y="358.6" fill="#3e3c42" font-family="Courier New" font-size="14">idSupport</text>
	<line x1="177" y1="361" x2="254" y2="361" stroke="#3e3c42" stroke-width="1"/>
	<text x="177" y="376.6" fill="#3e3c42" font-family="Courier New" font-size="14">nomSupport</text>
</g>

<!-- Entity IMAGE -->
<g>
	<g>
		<rect x="436" y="314" width="88" height="26" fill="#97b8ff" stroke="none" stroke-width="0" opacity="1"/>
		<rect x="436" y="340" width="88" height="44" fill="#c0d4ff" stroke="none" stroke-width="0" opacity="1"/>
		<rect x="436" y="314" width="88" height="70" fill="none" stroke="#578dff" stroke-width="1.5" opacity="1"/>
		<line x1="436" y1="340" x2="524" y2="340" stroke="#578dff" stroke-width="1"/>
	</g>
	<text x="459" y="332.6" fill="#131114" font-family="Courier New" font-size="14">Image</text>
	<text x="441" y="358.6" fill="#3e3c42" font-family="Courier New" font-size="14">idImage</text>
	<line x1="441" y1="361" x2="501" y2="361" stroke="#3e3c42" stroke-width="1"/>
	<text x="441" y="376.6" fill="#3e3c42" font-family="Courier New" font-size="14">lienImage</text>
</g>

<!-- Entity UTILISATEUR -->
<g>
	<g>
		<rect x="807" y="269" width="120" height="26" fill="#97b8ff" stroke="none" stroke-width="0" opacity="1"/>
		<rect x="807" y="295" width="120" height="134" fill="#c0d4ff" stroke="none" stroke-width="0" opacity="1"/>
		<rect x="807" y="269" width="120" height="160" fill="none" stroke="#578dff" stroke-width="1.5" opacity="1"/>
		<line x1="807" y1="295" x2="927" y2="295" stroke="#578dff" stroke-width="1"/>
	</g>
	<text x="820" y="287.6" fill="#131114" font-family="Courier New" font-size="14">Utilisateur</text>
	<text x="812" y="313.6" fill="#3e3c42" font-family="Courier New" font-size="14">login</text>
	<line x1="812" y1="316" x2="855" y2="316" stroke="#3e3c42" stroke-width="1"/>
	<text x="812" y="331.6" fill="#3e3c42" font-family="Courier New" font-size="14">mdp</text>
	<text x="812" y="349.6" fill="#3e3c42" font-family="Courier New" font-size="14">nom</text>
	<text x="812" y="367.6" fill="#3e3c42" font-family="Courier New" font-size="14">prenom</text>
	<text x="812" y="385.6" fill="#3e3c42" font-family="Courier New" font-size="14">mel</text>
	<text x="812" y="403.6" fill="#3e3c42" font-family="Courier New" font-size="14">dateNaissance</text>
	<text x="812" y="421.6" fill="#3e3c42" font-family="Courier New" font-size="14">modo</text>
</g>
</svg>