<?xml version="1.0" encoding="utf-8"?>
<!-- Generated by Mocodo 4.3.2 -->
<svg width="824" height="458" viewBox="0 0 824 458" xmlns="http://www.w3.org/2000/svg">
<rect x="0" y="0" width="824" height="458" fill="none" stroke="none" stroke-width="0"/>

<!-- Entity JEU -->
<g>
	<g>
		<rect x="54" y="54" width="96" height="26" fill="#97b8ff" stroke="none" stroke-width="0" opacity="1"/>
		<rect x="54" y="80" width="96" height="98" fill="#c0d4ff" stroke="none" stroke-width="0" opacity="1"/>
		<rect x="54" y="54" width="96" height="124" fill="none" stroke="#578dff" stroke-width="1.5" opacity="1"/>
		<line x1="54" y1="80" x2="150" y2="80" stroke="#578dff" stroke-width="1"/>
	</g>
	<text x="89" y="72.6" fill="#131114" font-family="Courier New" font-size="14">Jeu</text>
	<text x="59" y="98.6" fill="#3e3c42" font-family="Courier New" font-size="14">idJeu</text>
	<line x1="59" y1="101" x2="102" y2="101" stroke="#3e3c42" stroke-width="1"/>
	<text x="59" y="116.6" fill="#3e3c42" font-family="Courier New" font-size="14">nom</text>
	<text x="59" y="134.6" fill="#3e3c42" font-family="Courier New" font-size="14">prix</text>
	<text x="59" y="152.6" fill="#3e3c42" font-family="Courier New" font-size="14">dateSortie</text>
	<text x="59" y="170.6" fill="#3e3c42" font-family="Courier New" font-size="14">synopsis</text>
</g>

<!-- Entity ARTICLE -->
<g>
	<g>
		<rect x="398" y="9" width="172" height="26" fill="#97b8ff" stroke="none" stroke-width="0" opacity="1"/>
		<rect x="398" y="35" width="172" height="188" fill="#c0d4ff" stroke="none" stroke-width="0" opacity="1"/>
		<rect x="398" y="9" width="172" height="214" fill="none" stroke="#578dff" stroke-width="1.5" opacity="1"/>
		<line x1="398" y1="35" x2="570" y2="35" stroke="#578dff" stroke-width="1"/>
	</g>
	<text x="454" y="27.6" fill="#131114" font-family="Courier New" font-size="14">Article</text>
	<text x="403" y="53.6" fill="#3e3c42" font-family="Courier New" font-size="14">idArticle</text>
	<line x1="403" y1="56" x2="480" y2="56" stroke="#3e3c42" stroke-width="1"/>
	<text x="403" y="71.6" fill="#3e3c42" font-family="Courier New" font-size="14">titre</text>
	<text x="403" y="89.6" fill="#3e3c42" font-family="Courier New" font-size="14">contenu</text>
	<text x="403" y="107.6" fill="#3e3c42" font-family="Courier New" font-size="14">noteArticle</text>
	<text x="403" y="125.6" fill="#3e3c42" font-family="Courier New" font-size="14">caractéristiques</text>
	<text x="403" y="143.6" fill="#3e3c42" font-family="Courier New" font-size="14">dateCreationArticle</text>
	<text x="403" y="161.6" fill="#3e3c42" font-family="Courier New" font-size="14">dateModification</text>
	<text x="403" y="179.6" fill="#3e3c42" font-family="Courier New" font-size="14">#idJeu</text>
	<text x="403" y="197.6" fill="#3e3c42" font-family="Courier New" font-size="14">#idImage</text>
	<text x="403" y="215.6" fill="#3e3c42" font-family="Courier New" font-size="14">#login</text>
</g>

<!-- Entity AVIS -->
<g>
	<g>
		<rect x="636" y="45" width="146" height="26" fill="#97b8ff" stroke="none" stroke-width="0" opacity="1"/>
		<rect x="636" y="71" width="146" height="116" fill="#c0d4ff" stroke="none" stroke-width="0" opacity="1"/>
		<rect x="636" y="45" width="146" height="142" fill="none" stroke="#578dff" stroke-width="1.5" opacity="1"/>
		<line x1="636" y1="71" x2="782" y2="71" stroke="#578dff" stroke-width="1"/>
	</g>
	<text x="692" y="63.6" fill="#131114" font-family="Courier New" font-size="14">Avis</text>
	<text x="641" y="89.6" fill="#3e3c42" font-family="Courier New" font-size="14">#idArticle</text>
	<line x1="641" y1="92" x2="726" y2="92" stroke="#3e3c42" stroke-width="1"/>
	<text x="641" y="107.6" fill="#3e3c42" font-family="Courier New" font-size="14">titre</text>
	<line x1="641" y1="110" x2="684" y2="110" stroke="#3e3c42" stroke-width="1"/>
	<text x="641" y="125.6" fill="#3e3c42" font-family="Courier New" font-size="14">texte</text>
	<text x="641" y="143.6" fill="#3e3c42" font-family="Courier New" font-size="14">noteAvis</text>
	<text x="641" y="161.6" fill="#3e3c42" font-family="Courier New" font-size="14">dateCreationAvis</text>
	<text x="641" y="179.6" fill="#3e3c42" font-family="Courier New" font-size="14">#login</text>
</g>

<!-- Entity CATEGORIESJEU -->
<g>
	<g>
		<rect x="42" y="212" width="120" height="26" fill="#97b8ff" stroke="none" stroke-width="0" opacity="1"/>
		<rect x="42" y="238" width="120" height="44" fill="#c0d4ff" stroke="none" stroke-width="0" opacity="1"/>
		<rect x="42" y="212" width="120" height="70" fill="none" stroke="#578dff" stroke-width="1.5" opacity="1"/>
		<line x1="42" y1="238" x2="162" y2="238" stroke="#578dff" stroke-width="1"/>
	</g>
	<text x="47" y="230.6" fill="#131114" font-family="Courier New" font-size="14">CategoriesJeu</text>
	<text x="47" y="256.6" fill="#3e3c42" font-family="Courier New" font-size="14">#idJeu</text>
	<line x1="47" y1="259" x2="99" y2="259" stroke="#3e3c42" stroke-width="1"/>
	<text x="47" y="274.6" fill="#3e3c42" font-family="Courier New" font-size="14">#idCategorie</text>
	<line x1="47" y1="277" x2="149" y2="277" stroke="#3e3c42" stroke-width="1"/>
</g>

<!-- Entity SUPPORTSJEU -->
<g>
	<g>
		<rect x="228" y="212" width="104" height="26" fill="#97b8ff" stroke="none" stroke-width="0" opacity="1"/>
		<rect x="228" y="238" width="104" height="44" fill="#c0d4ff" stroke="none" stroke-width="0" opacity="1"/>
		<rect x="228" y="212" width="104" height="70" fill="none" stroke="#578dff" stroke-width="1.5" opacity="1"/>
		<line x1="228" y1="238" x2="332" y2="238" stroke="#578dff" stroke-width="1"/>
	</g>
	<text x="233" y="230.6" fill="#131114" font-family="Courier New" font-size="14">SupportsJeu</text>
	<text x="233" y="256.6" fill="#3e3c42" font-family="Courier New" font-size="14">#idJeu</text>
	<line x1="233" y1="259" x2="285" y2="259" stroke="#3e3c42" stroke-width="1"/>
	<text x="233" y="274.6" fill="#3e3c42" font-family="Courier New" font-size="14">#idSupport</text>
	<line x1="233" y1="277" x2="318" y2="277" stroke="#3e3c42" stroke-width="1"/>
</g>

<!-- Entity CATEGORIE -->
<g>
	<g>
		<rect x="46" y="325" width="112" height="26" fill="#97b8ff" stroke="none" stroke-width="0" opacity="1"/>
		<rect x="46" y="351" width="112" height="44" fill="#c0d4ff" stroke="none" stroke-width="0" opacity="1"/>
		<rect x="46" y="325" width="112" height="70" fill="none" stroke="#578dff" stroke-width="1.5" opacity="1"/>
		<line x1="46" y1="351" x2="158" y2="351" stroke="#578dff" stroke-width="1"/>
	</g>
	<text x="64" y="343.6" fill="#131114" font-family="Courier New" font-size="14">Categorie</text>
	<text x="51" y="369.6" fill="#3e3c42" font-family="Courier New" font-size="14">idCategorie</text>
	<line x1="51" y1="372" x2="145" y2="372" stroke="#3e3c42" stroke-width="1"/>
	<text x="51" y="387.6" fill="#3e3c42" font-family="Courier New" font-size="14">nomCategorie</text>
</g>

<!-- Entity SUPPORT -->
<g>
	<g>
		<rect x="232" y="325" width="96" height="26" fill="#97b8ff" stroke="none" stroke-width="0" opacity="1"/>
		<rect x="232" y="351" width="96" height="44" fill="#c0d4ff" stroke="none" stroke-width="0" opacity="1"/>
		<rect x="232" y="325" width="96" height="70" fill="none" stroke="#578dff" stroke-width="1.5" opacity="1"/>
		<line x1="232" y1="351" x2="328" y2="351" stroke="#578dff" stroke-width="1"/>
	</g>
	<text x="250" y="343.6" fill="#131114" font-family="Courier New" font-size="14">Support</text>
	<text x="237" y="369.6" fill="#3e3c42" font-family="Courier New" font-size="14">idSupport</text>
	<line x1="237" y1="372" x2="314" y2="372" stroke="#3e3c42" stroke-width="1"/>
	<text x="237" y="387.6" fill="#3e3c42" font-family="Courier New" font-size="14">nomSupport</text>
</g>

<!-- Entity IMAGE -->
<g>
	<g>
		<rect x="436" y="316" width="96" height="26" fill="#97b8ff" stroke="none" stroke-width="0" opacity="1"/>
		<rect x="436" y="342" width="96" height="62" fill="#c0d4ff" stroke="none" stroke-width="0" opacity="1"/>
		<rect x="436" y="316" width="96" height="88" fill="none" stroke="#578dff" stroke-width="1.5" opacity="1"/>
		<line x1="436" y1="342" x2="532" y2="342" stroke="#578dff" stroke-width="1"/>
	</g>
	<text x="463" y="334.6" fill="#131114" font-family="Courier New" font-size="14">Image</text>
	<text x="441" y="360.6" fill="#3e3c42" font-family="Courier New" font-size="14">idImage</text>
	<line x1="441" y1="363" x2="501" y2="363" stroke="#3e3c42" stroke-width="1"/>
	<text x="441" y="378.6" fill="#3e3c42" font-family="Courier New" font-size="14">lienImage</text>
	<text x="441" y="396.6" fill="#3e3c42" font-family="Courier New" font-size="14">#idArticle</text>
</g>

<!-- Entity UTILISATEUR -->
<g>
	<g>
		<rect x="649" y="271" width="120" height="26" fill="#97b8ff" stroke="none" stroke-width="0" opacity="1"/>
		<rect x="649" y="297" width="120" height="152" fill="#c0d4ff" stroke="none" stroke-width="0" opacity="1"/>
		<rect x="649" y="271" width="120" height="178" fill="none" stroke="#578dff" stroke-width="1.5" opacity="1"/>
		<line x1="649" y1="297" x2="769" y2="297" stroke="#578dff" stroke-width="1"/>
	</g>
	<text x="662" y="289.6" fill="#131114" font-family="Courier New" font-size="14">Utilisateur</text>
	<text x="654" y="315.6" fill="#3e3c42" font-family="Courier New" font-size="14">login</text>
	<line x1="654" y1="318" x2="697" y2="318" stroke="#3e3c42" stroke-width="1"/>
	<text x="654" y="333.6" fill="#3e3c42" font-family="Courier New" font-size="14">mdp</text>
	<text x="654" y="351.6" fill="#3e3c42" font-family="Courier New" font-size="14">nom</text>
	<text x="654" y="369.6" fill="#3e3c42" font-family="Courier New" font-size="14">prenom</text>
	<text x="654" y="387.6" fill="#3e3c42" font-family="Courier New" font-size="14">mel</text>
	<text x="654" y="405.6" fill="#3e3c42" font-family="Courier New" font-size="14">dateNaissance</text>
	<text x="654" y="423.6" fill="#3e3c42" font-family="Courier New" font-size="14">modo</text>
	<text x="654" y="441.6" fill="#3e3c42" font-family="Courier New" font-size="14">#idImage</text>
</g>

<!-- Link from &quot;idJeu&quot; (ARTICLE) to &quot;idJeu&quot; (JEU) -->
<path d="M398 175 C274 134.5 315.33 94 150 94" fill="none" stroke="#726f83" stroke-width="1"/>
<polygon points="150 94 162 88 158 94 162 100" fill="#726f83" stroke-width="0"/>
<circle cx="398" cy="175" r="1.5" stroke="#726f83" stroke-width="1.5" fill="#726f83"/>

<!-- Link from &quot;idImage&quot; (ARTICLE) to &quot;idImage&quot; (IMAGE) -->
<path d="M570 193 C626 274.5 588 356 532 356" fill="none" stroke="#726f83" stroke-width="1"/>
<polygon points="532 356 544 350 540 356 544 362" fill="#726f83" stroke-width="0"/>
<circle cx="570" cy="193" r="1.5" stroke="#726f83" stroke-width="1.5" fill="#726f83"/>

<!-- Link from &quot;login&quot; (ARTICLE) to &quot;login&quot; (UTILISATEUR) -->
<path d="M570 211 C609.5 261 596.33 311 649 311" fill="none" stroke="#726f83" stroke-width="1"/>
<polygon points="649 311 637 317 641 311 637 305" fill="#726f83" stroke-width="0"/>
<circle cx="570" cy="211" r="1.5" stroke="#726f83" stroke-width="1.5" fill="#726f83"/>

<!-- Link from &quot;idArticle&quot; (AVIS) to &quot;idArticle&quot; (ARTICLE) -->
<path d="M636 85 C603 67 614 49 570 49" fill="none" stroke="#726f83" stroke-width="1"/>
<polygon points="570 49 582 43 578 49 582 55" fill="#726f83" stroke-width="0"/>
<circle cx="636" cy="85" r="1.5" stroke="#726f83" stroke-width="1.5" fill="#726f83"/>

<!-- Link from &quot;login&quot; (AVIS) to &quot;login&quot; (UTILISATEUR) -->
<path d="M636 175 C580 243 593 311 649 311" fill="none" stroke="#726f83" stroke-width="1"/>
<polygon points="649 311 637 317 641 311 637 305" fill="#726f83" stroke-width="0"/>
<circle cx="636" cy="175" r="1.5" stroke="#726f83" stroke-width="1.5" fill="#726f83"/>

<!-- Link from &quot;idJeu&quot; (CATEGORIESJEU) to &quot;idJeu&quot; (JEU) -->
<path d="M162 252 C218 173 206 94 150 94" fill="none" stroke="#726f83" stroke-width="1"/>
<polygon points="150 94 162 88 158 94 162 100" fill="#726f83" stroke-width="0"/>
<circle cx="162" cy="252" r="1.5" stroke="#726f83" stroke-width="1.5" fill="#726f83"/>

<!-- Link from &quot;idCategorie&quot; (CATEGORIESJEU) to &quot;idCategorie&quot; (CATEGORIE) -->
<path d="M42 270 C-14 317.5 -10 365 46 365" fill="none" stroke="#726f83" stroke-width="1"/>
<polygon points="46 365 34 371 38 365 34 359" fill="#726f83" stroke-width="0"/>
<circle cx="42" cy="270" r="1.5" stroke="#726f83" stroke-width="1.5" fill="#726f83"/>

<!-- Link from &quot;idJeu&quot; (SUPPORTSJEU) to &quot;idJeu&quot; (JEU) -->
<path d="M228 252 C189 173 202 94 150 94" fill="none" stroke="#726f83" stroke-width="1"/>
<polygon points="150 94 162 88 158 94 162 100" fill="#726f83" stroke-width="0"/>
<circle cx="228" cy="252" r="1.5" stroke="#726f83" stroke-width="1.5" fill="#726f83"/>

<!-- Link from &quot;idSupport&quot; (SUPPORTSJEU) to &quot;idSupport&quot; (SUPPORT) -->
<path d="M228 270 C172 317.5 176 365 232 365" fill="none" stroke="#726f83" stroke-width="1"/>
<polygon points="232 365 220 371 224 365 220 359" fill="#726f83" stroke-width="0"/>
<circle cx="228" cy="270" r="1.5" stroke="#726f83" stroke-width="1.5" fill="#726f83"/>

<!-- Link from &quot;idArticle&quot; (IMAGE) to &quot;idArticle&quot; (ARTICLE) -->
<path d="M532 392 C588 220.5 626 49 570 49" fill="none" stroke="#726f83" stroke-width="1"/>
<polygon points="570 49 582 43 578 49 582 55" fill="#726f83" stroke-width="0"/>
<circle cx="532" cy="392" r="1.5" stroke="#726f83" stroke-width="1.5" fill="#726f83"/>

<!-- Link from &quot;idImage&quot; (UTILISATEUR) to &quot;idImage&quot; (IMAGE) -->
<path d="M649 437 C590.5 396.5 610 356 532 356" fill="none" stroke="#726f83" stroke-width="1"/>
<polygon points="532 356 544 350 540 356 544 362" fill="#726f83" stroke-width="0"/>
<circle cx="649" cy="437" r="1.5" stroke="#726f83" stroke-width="1.5" fill="#726f83"/>
</svg>