<?xml version="1.0" encoding="utf-8"?>
<!-- Generated by Mocodo 4.3.2 -->
<svg width="874" height="637" viewBox="0 0 874 637" xmlns="http://www.w3.org/2000/svg">
<rect x="0" y="0" width="874" height="637" fill="none" stroke="none" stroke-width="0"/>

<!-- Entity CATEGORIE -->
<g>
	<g>
		<rect x="284" y="9" width="112" height="26" fill="#97b8ff" stroke="none" stroke-width="0" opacity="1"/>
		<rect x="284" y="35" width="112" height="44" fill="#c0d4ff" stroke="none" stroke-width="0" opacity="1"/>
		<rect x="284" y="9" width="112" height="70" fill="none" stroke="#578dff" stroke-width="1.5" opacity="1"/>
		<line x1="284" y1="35" x2="396" y2="35" stroke="#578dff" stroke-width="1"/>
	</g>
	<text x="302" y="27.6" fill="#131114" font-family="Courier New" font-size="14">Categorie</text>
	<text x="289" y="53.6" fill="#3e3c42" font-family="Courier New" font-size="14">idCategorie</text>
	<line x1="289" y1="56" x2="383" y2="56" stroke="#3e3c42" stroke-width="1"/>
	<text x="289" y="71.6" fill="#3e3c42" font-family="Courier New" font-size="14">nomCategorie</text>
</g>

<!-- Entity SUPPORT -->
<g>
	<g>
		<rect x="470" y="9" width="96" height="26" fill="#97b8ff" stroke="none" stroke-width="0" opacity="1"/>
		<rect x="470" y="35" width="96" height="44" fill="#c0d4ff" stroke="none" stroke-width="0" opacity="1"/>
		<rect x="470" y="9" width="96" height="70" fill="none" stroke="#578dff" stroke-width="1.5" opacity="1"/>
		<line x1="470" y1="35" x2="566" y2="35" stroke="#578dff" stroke-width="1"/>
	</g>
	<text x="488" y="27.6" fill="#131114" font-family="Courier New" font-size="14">Support</text>
	<text x="475" y="53.6" fill="#3e3c42" font-family="Courier New" font-size="14">idSupport</text>
	<line x1="475" y1="56" x2="552" y2="56" stroke="#3e3c42" stroke-width="1"/>
	<text x="475" y="71.6" fill="#3e3c42" font-family="Courier New" font-size="14">nomSupport</text>
</g>

<!-- Entity CATEGORIESJEU -->
<g>
	<g>
		<rect x="280" y="103" width="120" height="26" fill="#97b8ff" stroke="none" stroke-width="0" opacity="1"/>
		<rect x="280" y="129" width="120" height="44" fill="#c0d4ff" stroke="none" stroke-width="0" opacity="1"/>
		<rect x="280" y="103" width="120" height="70" fill="none" stroke="#578dff" stroke-width="1.5" opacity="1"/>
		<line x1="280" y1="129" x2="400" y2="129" stroke="#578dff" stroke-width="1"/>
	</g>
	<text x="285" y="121.6" fill="#131114" font-family="Courier New" font-size="14">CategoriesJeu</text>
	<text x="285" y="147.6" fill="#3e3c42" font-family="Courier New" font-size="14">#idJeu</text>
	<line x1="285" y1="150" x2="337" y2="150" stroke="#3e3c42" stroke-width="1"/>
	<text x="285" y="165.6" fill="#3e3c42" font-family="Courier New" font-size="14">#idCategorie</text>
	<line x1="285" y1="168" x2="387" y2="168" stroke="#3e3c42" stroke-width="1"/>
</g>

<!-- Entity SUPPORTSJEU -->
<g>
	<g>
		<rect x="466" y="103" width="104" height="26" fill="#97b8ff" stroke="none" stroke-width="0" opacity="1"/>
		<rect x="466" y="129" width="104" height="44" fill="#c0d4ff" stroke="none" stroke-width="0" opacity="1"/>
		<rect x="466" y="103" width="104" height="70" fill="none" stroke="#578dff" stroke-width="1.5" opacity="1"/>
		<line x1="466" y1="129" x2="570" y2="129" stroke="#578dff" stroke-width="1"/>
	</g>
	<text x="471" y="121.6" fill="#131114" font-family="Courier New" font-size="14">SupportsJeu</text>
	<text x="471" y="147.6" fill="#3e3c42" font-family="Courier New" font-size="14">#idJeu</text>
	<line x1="471" y1="150" x2="523" y2="150" stroke="#3e3c42" stroke-width="1"/>
	<text x="471" y="165.6" fill="#3e3c42" font-family="Courier New" font-size="14">#idSupport</text>
	<line x1="471" y1="168" x2="556" y2="168" stroke="#3e3c42" stroke-width="1"/>
</g>

<!-- Entity JEU -->
<g>
	<g>
		<rect x="292" y="197" width="96" height="26" fill="#97b8ff" stroke="none" stroke-width="0" opacity="1"/>
		<rect x="292" y="223" width="96" height="116" fill="#c0d4ff" stroke="none" stroke-width="0" opacity="1"/>
		<rect x="292" y="197" width="96" height="142" fill="none" stroke="#578dff" stroke-width="1.5" opacity="1"/>
		<line x1="292" y1="223" x2="388" y2="223" stroke="#578dff" stroke-width="1"/>
	</g>
	<text x="327" y="215.6" fill="#131114" font-family="Courier New" font-size="14">Jeu</text>
	<text x="297" y="241.6" fill="#3e3c42" font-family="Courier New" font-size="14">idJeu</text>
	<line x1="297" y1="244" x2="340" y2="244" stroke="#3e3c42" stroke-width="1"/>
	<text x="297" y="259.6" fill="#3e3c42" font-family="Courier New" font-size="14">nom</text>
	<text x="297" y="277.6" fill="#3e3c42" font-family="Courier New" font-size="14">prix</text>
	<text x="297" y="295.6" fill="#3e3c42" font-family="Courier New" font-size="14">dateSortie</text>
	<text x="297" y="313.6" fill="#3e3c42" font-family="Courier New" font-size="14">synopsis</text>
	<text x="297" y="331.6" fill="#3e3c42" font-family="Courier New" font-size="14">#idImage</text>
</g>

<!-- Entity AVIS -->
<g>
	<g>
		<rect x="661" y="188" width="146" height="26" fill="#97b8ff" stroke="none" stroke-width="0" opacity="1"/>
		<rect x="661" y="214" width="146" height="134" fill="#c0d4ff" stroke="none" stroke-width="0" opacity="1"/>
		<rect x="661" y="188" width="146" height="160" fill="none" stroke="#578dff" stroke-width="1.5" opacity="1"/>
		<line x1="661" y1="214" x2="807" y2="214" stroke="#578dff" stroke-width="1"/>
	</g>
	<text x="717" y="206.6" fill="#131114" font-family="Courier New" font-size="14">Avis</text>
	<text x="666" y="232.6" fill="#3e3c42" font-family="Courier New" font-size="14">idAvis</text>
	<line x1="666" y1="235" x2="718" y2="235" stroke="#3e3c42" stroke-width="1"/>
	<text x="666" y="250.6" fill="#3e3c42" font-family="Courier New" font-size="14">titre</text>
	<text x="666" y="268.6" fill="#3e3c42" font-family="Courier New" font-size="14">texte</text>
	<text x="666" y="286.6" fill="#3e3c42" font-family="Courier New" font-size="14">noteAvis</text>
	<text x="666" y="304.6" fill="#3e3c42" font-family="Courier New" font-size="14">dateCreationAvis</text>
	<text x="666" y="322.6" fill="#3e3c42" font-family="Courier New" font-size="14">#idJeu</text>
	<text x="666" y="340.6" fill="#3e3c42" font-family="Courier New" font-size="14">#login</text>
</g>

<!-- Entity ARTICLE -->
<g>
	<g>
		<rect x="42" y="292" width="172" height="26" fill="#97b8ff" stroke="none" stroke-width="0" opacity="1"/>
		<rect x="42" y="318" width="172" height="170" fill="#c0d4ff" stroke="none" stroke-width="0" opacity="1"/>
		<rect x="42" y="292" width="172" height="196" fill="none" stroke="#578dff" stroke-width="1.5" opacity="1"/>
		<line x1="42" y1="318" x2="214" y2="318" stroke="#578dff" stroke-width="1"/>
	</g>
	<text x="98" y="310.6" fill="#131114" font-family="Courier New" font-size="14">Article</text>
	<text x="47" y="336.6" fill="#3e3c42" font-family="Courier New" font-size="14">idArticle</text>
	<line x1="47" y1="339" x2="124" y2="339" stroke="#3e3c42" stroke-width="1"/>
	<text x="47" y="354.6" fill="#3e3c42" font-family="Courier New" font-size="14">titre</text>
	<text x="47" y="372.6" fill="#3e3c42" font-family="Courier New" font-size="14">contenu</text>
	<text x="47" y="390.6" fill="#3e3c42" font-family="Courier New" font-size="14">noteArticle</text>
	<text x="47" y="408.6" fill="#3e3c42" font-family="Courier New" font-size="14">caractéristiques</text>
	<text x="47" y="426.6" fill="#3e3c42" font-family="Courier New" font-size="14">dateCreationArticle</text>
	<text x="47" y="444.6" fill="#3e3c42" font-family="Courier New" font-size="14">dateModification</text>
	<text x="47" y="462.6" fill="#3e3c42" font-family="Courier New" font-size="14">#idJeu</text>
	<text x="47" y="480.6" fill="#3e3c42" font-family="Courier New" font-size="14">#login</text>
</g>

<!-- Entity IMAGE -->
<g>
	<g>
		<rect x="470" y="346" width="96" height="26" fill="#97b8ff" stroke="none" stroke-width="0" opacity="1"/>
		<rect x="470" y="372" width="96" height="62" fill="#c0d4ff" stroke="none" stroke-width="0" opacity="1"/>
		<rect x="470" y="346" width="96" height="88" fill="none" stroke="#578dff" stroke-width="1.5" opacity="1"/>
		<line x1="470" y1="372" x2="566" y2="372" stroke="#578dff" stroke-width="1"/>
	</g>
	<text x="497" y="364.6" fill="#131114" font-family="Courier New" font-size="14">Image</text>
	<text x="475" y="390.6" fill="#3e3c42" font-family="Courier New" font-size="14">idImage</text>
	<line x1="475" y1="393" x2="535" y2="393" stroke="#3e3c42" stroke-width="1"/>
	<text x="475" y="408.6" fill="#3e3c42" font-family="Courier New" font-size="14">lienImage</text>
	<text x="475" y="426.6" fill="#3e3c42" font-family="Courier New" font-size="14">#idArticle</text>
</g>

<!-- Entity UTILISATEUR -->
<g>
	<g>
		<rect x="636" y="414" width="196" height="26" fill="#97b8ff" stroke="none" stroke-width="0" opacity="1"/>
		<rect x="636" y="440" width="196" height="188" fill="#c0d4ff" stroke="none" stroke-width="0" opacity="1"/>
		<rect x="636" y="414" width="196" height="214" fill="none" stroke="#578dff" stroke-width="1.5" opacity="1"/>
		<line x1="636" y1="440" x2="832" y2="440" stroke="#578dff" stroke-width="1"/>
	</g>
	<text x="687" y="432.6" fill="#131114" font-family="Courier New" font-size="14">Utilisateur</text>
	<text x="641" y="458.6" fill="#3e3c42" font-family="Courier New" font-size="14">login</text>
	<line x1="641" y1="461" x2="684" y2="461" stroke="#3e3c42" stroke-width="1"/>
	<text x="641" y="476.6" fill="#3e3c42" font-family="Courier New" font-size="14">mdp</text>
	<text x="641" y="494.6" fill="#3e3c42" font-family="Courier New" font-size="14">nom</text>
	<text x="641" y="512.6" fill="#3e3c42" font-family="Courier New" font-size="14">prenom</text>
	<text x="641" y="530.6" fill="#3e3c42" font-family="Courier New" font-size="14">mel</text>
	<text x="641" y="548.6" fill="#3e3c42" font-family="Courier New" font-size="14">dateNaissance</text>
	<text x="641" y="566.6" fill="#3e3c42" font-family="Courier New" font-size="14">dateCreationCompte</text>
	<text x="641" y="584.6" fill="#3e3c42" font-family="Courier New" font-size="14">dateDerniereConnection</text>
	<text x="641" y="602.6" fill="#3e3c42" font-family="Courier New" font-size="14">role</text>
	<text x="641" y="620.6" fill="#3e3c42" font-family="Courier New" font-size="14">#idImage</text>
</g>

<!-- Link from &quot;idJeu&quot; (CATEGORIESJEU) to &quot;idJeu&quot; (JEU) -->
<path d="M400 143 C456 190 444 237 388 237" fill="none" stroke="#726f83" stroke-width="1"/>
<polygon points="388 237 400 231 396 237 400 243" fill="#726f83" stroke-width="0"/>
<circle cx="400" cy="143" r="1.5" stroke="#726f83" stroke-width="1.5" fill="#726f83"/>

<!-- Link from &quot;idCategorie&quot; (CATEGORIESJEU) to &quot;idCategorie&quot; (CATEGORIE) -->
<path d="M280 161 C224 105 228 49 284 49" fill="none" stroke="#726f83" stroke-width="1"/>
<polygon points="284 49 272 55 276 49 272 43" fill="#726f83" stroke-width="0"/>
<circle cx="280" cy="161" r="1.5" stroke="#726f83" stroke-width="1.5" fill="#726f83"/>

<!-- Link from &quot;idJeu&quot; (SUPPORTSJEU) to &quot;idJeu&quot; (JEU) -->
<path d="M466 143 C427 190 440 237 388 237" fill="none" stroke="#726f83" stroke-width="1"/>
<polygon points="388 237 400 231 396 237 400 243" fill="#726f83" stroke-width="0"/>
<circle cx="466" cy="143" r="1.5" stroke="#726f83" stroke-width="1.5" fill="#726f83"/>

<!-- Link from &quot;idSupport&quot; (SUPPORTSJEU) to &quot;idSupport&quot; (SUPPORT) -->
<path d="M466 161 C410 105 414 49 470 49" fill="none" stroke="#726f83" stroke-width="1"/>
<polygon points="470 49 458 55 462 49 458 43" fill="#726f83" stroke-width="0"/>
<circle cx="466" cy="161" r="1.5" stroke="#726f83" stroke-width="1.5" fill="#726f83"/>

<!-- Link from &quot;idImage&quot; (JEU) to &quot;idImage&quot; (IMAGE) -->
<path d="M388 327 C429 356.5 415.33 386 470 386" fill="none" stroke="#726f83" stroke-width="1"/>
<polygon points="470 386 458 392 462 386 458 380" fill="#726f83" stroke-width="0"/>
<circle cx="388" cy="327" r="1.5" stroke="#726f83" stroke-width="1.5" fill="#726f83"/>

<!-- Link from &quot;idJeu&quot; (AVIS) to &quot;idJeu&quot; (JEU) -->
<path d="M661 318 C524.5 277.5 570 237 388 237" fill="none" stroke="#726f83" stroke-width="1"/>
<polygon points="388 237 400 231 396 237 400 243" fill="#726f83" stroke-width="0"/>
<circle cx="661" cy="318" r="1.5" stroke="#726f83" stroke-width="1.5" fill="#726f83"/>

<!-- Link from &quot;login&quot; (AVIS) to &quot;login&quot; (UTILISATEUR) -->
<path d="M807 336 C863 395 888 454 832 454" fill="none" stroke="#726f83" stroke-width="1"/>
<polygon points="832 454 844 448 840 454 844 460" fill="#726f83" stroke-width="0"/>
<circle cx="807" cy="336" r="1.5" stroke="#726f83" stroke-width="1.5" fill="#726f83"/>

<!-- Link from &quot;idJeu&quot; (ARTICLE) to &quot;idJeu&quot; (JEU) -->
<path d="M214 458 C253 347.5 240 237 292 237" fill="none" stroke="#726f83" stroke-width="1"/>
<polygon points="292 237 280 243 284 237 280 231" fill="#726f83" stroke-width="0"/>
<circle cx="214" cy="458" r="1.5" stroke="#726f83" stroke-width="1.5" fill="#726f83"/>

<!-- Link from &quot;login&quot; (ARTICLE) to &quot;login&quot; (UTILISATEUR) -->
<path d="M214 476 C425 465 354.67 454 636 454" fill="none" stroke="#726f83" stroke-width="1"/>
<polygon points="636 454 624 460 628 454 624 448" fill="#726f83" stroke-width="0"/>
<circle cx="214" cy="476" r="1.5" stroke="#726f83" stroke-width="1.5" fill="#726f83"/>

<!-- Link from &quot;idArticle&quot; (IMAGE) to &quot;idArticle&quot; (ARTICLE) -->
<path d="M470 422 C342 377 384.67 332 214 332" fill="none" stroke="#726f83" stroke-width="1"/>
<polygon points="214 332 226 326 222 332 226 338" fill="#726f83" stroke-width="0"/>
<circle cx="470" cy="422" r="1.5" stroke="#726f83" stroke-width="1.5" fill="#726f83"/>

<!-- Link from &quot;idImage&quot; (UTILISATEUR) to &quot;idImage&quot; (IMAGE) -->
<path d="M636 616 C601 501 612.67 386 566 386" fill="none" stroke="#726f83" stroke-width="1"/>
<polygon points="566 386 578 380 574 386 578 392" fill="#726f83" stroke-width="0"/>
<circle cx="636" cy="616" r="1.5" stroke="#726f83" stroke-width="1.5" fill="#726f83"/>
</svg>