<?xml version="1.0" encoding="utf-8"?>
<!-- Generated by Mocodo 4.3.2 -->
<svg width="676" height="792" viewBox="0 0 676 792" xmlns="http://www.w3.org/2000/svg">
<rect x="0" y="0" width="676" height="792" fill="none" stroke="none" stroke-width="0"/>

<!-- Association CATEGORIESJEU -->
<g>
	<line x1="255" y1="241" x2="255" y2="129" stroke="#726f83" stroke-width="1"/>
	<line x1="255" y1="44" x2="255" y2="129" stroke="#726f83" stroke-width="1"/>
	<g>
		<path d="M303 103 a14 14 90 0 1 14 14 V129 h-124 V117 a14 14 90 0 1 14 -14" fill="#b2bba4" stroke="#b2bba4" stroke-width="0"/>
		<path d="M317 129 v12 a14 14 90 0 1 -14 14 H207 a14 14 90 0 1 -14 -14 V129 H124" fill="#ccd6ba" stroke="#ccd6ba" stroke-width="0"/>
		<rect x="193" y="103" width="124" height="52" fill="none" rx="14" stroke="#85956b" stroke-width="1.5"/>
		<line x1="193" y1="129" x2="317" y2="129" stroke="#85956b" stroke-width="1"/>
		<text x="200" y="121.6" fill="#27360c" font-family="Courier New" font-size="14">CategoriesJeu</text>
	</g>
	<text x="227" y="171" fill="#726f83" font-family="Courier New" font-size="12">1,N</text>
	<text x="260" y="95" fill="#726f83" font-family="Courier New" font-size="12">0,N</text>
</g>

<!-- Association SUPPORTSJEU -->
<g>
	<line x1="255" y1="241" x2="421" y2="129" stroke="#726f83" stroke-width="1"/>
	<line x1="421" y1="44" x2="421" y2="129" stroke="#726f83" stroke-width="1"/>
	<g>
		<path d="M461 103 a14 14 90 0 1 14 14 V129 h-108 V117 a14 14 90 0 1 14 -14" fill="#b2bba4" stroke="#b2bba4" stroke-width="0"/>
		<path d="M475 129 v12 a14 14 90 0 1 -14 14 H381 a14 14 90 0 1 -14 -14 V129 H108" fill="#ccd6ba" stroke="#ccd6ba" stroke-width="0"/>
		<rect x="367" y="103" width="108" height="52" fill="none" rx="14" stroke="#85956b" stroke-width="1.5"/>
		<line x1="367" y1="129" x2="475" y2="129" stroke="#85956b" stroke-width="1"/>
		<text x="374" y="121.6" fill="#27360c" font-family="Courier New" font-size="14">SupportsJeu</text>
	</g>
	<text x="308" y="219.45" fill="#726f83" font-family="Courier New" font-size="12">1,N</text>
	<text x="426" y="95" fill="#726f83" font-family="Courier New" font-size="12">0,N</text>
</g>

<!-- Association ARTICLEJEU -->
<g>
	<line x1="95" y1="407" x2="95" y2="241" stroke="#726f83" stroke-width="1"/>
	<line x1="255" y1="241" x2="95" y2="241" stroke="#726f83" stroke-width="1"/>
	<g>
		<path d="M131 215 a14 14 90 0 1 14 14 V241 h-100 V229 a14 14 90 0 1 14 -14" fill="#b2bba4" stroke="#b2bba4" stroke-width="0"/>
		<path d="M145 241 v12 a14 14 90 0 1 -14 14 H59 a14 14 90 0 1 -14 -14 V241 H100" fill="#ccd6ba" stroke="#ccd6ba" stroke-width="0"/>
		<rect x="45" y="215" width="100" height="52" fill="none" rx="14" stroke="#85956b" stroke-width="1.5"/>
		<line x1="45" y1="241" x2="145" y2="241" stroke="#85956b" stroke-width="1"/>
		<text x="53" y="233.6" fill="#27360c" font-family="Courier New" font-size="14">ArticleJeu</text>
	</g>
	<text x="100" y="319" fill="#726f83" font-family="Courier New" font-size="12">1,1</text>
	<text x="179" y="257" fill="#726f83" font-family="Courier New" font-size="12">0,1</text>
</g>

<!-- Association AVISJEU -->
<g>
	<line x1="255" y1="241" x2="421" y2="241" stroke="#726f83" stroke-width="1"/>
	<line x1="569" y1="241" x2="421" y2="241" stroke="#726f83" stroke-width="1"/>
	<g>
		<path d="M444 215 a14 14 90 0 1 14 14 V241 h-74 V229 a14 14 90 0 1 14 -14" fill="#b2bba4" stroke="#b2bba4" stroke-width="0"/>
		<path d="M458 241 v12 a14 14 90 0 1 -14 14 H398 a14 14 90 0 1 -14 -14 V241 H74" fill="#ccd6ba" stroke="#ccd6ba" stroke-width="0"/>
		<rect x="384" y="215" width="74" height="52" fill="none" rx="14" stroke="#85956b" stroke-width="1.5"/>
		<line x1="384" y1="241" x2="458" y2="241" stroke="#85956b" stroke-width="1"/>
		<text x="391" y="233.6" fill="#27360c" font-family="Courier New" font-size="14">AvisJeu</text>
	</g>
	<text x="308" y="257" fill="#726f83" font-family="Courier New" font-size="12">0,N</text>
	<text x="468" y="257" fill="#726f83" font-family="Courier New" font-size="12">1,1</text>
</g>

<!-- Association JAQUETTE -->
<g>
	<line x1="255" y1="241" x2="255" y2="407" stroke="#726f83" stroke-width="1"/>
	<line x1="421" y1="407" x2="255" y2="407" stroke="#726f83" stroke-width="1"/>
	<g>
		<path d="M282 381 a14 14 90 0 1 14 14 V407 h-82 V395 a14 14 90 0 1 14 -14" fill="#b2bba4" stroke="#b2bba4" stroke-width="0"/>
		<path d="M296 407 v12 a14 14 90 0 1 -14 14 H228 a14 14 90 0 1 -14 -14 V407 H82" fill="#ccd6ba" stroke="#ccd6ba" stroke-width="0"/>
		<rect x="214" y="381" width="82" height="52" fill="none" rx="14" stroke="#85956b" stroke-width="1.5"/>
		<line x1="214" y1="407" x2="296" y2="407" stroke="#85956b" stroke-width="1"/>
		<text x="221" y="399.6" fill="#27360c" font-family="Courier New" font-size="14">jaquette</text>
	</g>
	<text x="260" y="319" fill="#726f83" font-family="Courier New" font-size="12">1,1</text>
	<text x="349" y="399" fill="#726f83" font-family="Courier New" font-size="12">0,1</text>
</g>

<!-- Association AVISUTILISATEUR -->
<g>
	<line x1="569" y1="685" x2="569" y2="407" stroke="#726f83" stroke-width="1"/>
	<line x1="569" y1="241" x2="569" y2="407" stroke="#726f83" stroke-width="1"/>
	<g>
		<path d="M626 381 a14 14 90 0 1 14 14 V407 h-142 V395 a14 14 90 0 1 14 -14" fill="#b2bba4" stroke="#b2bba4" stroke-width="0"/>
		<path d="M640 407 v12 a14 14 90 0 1 -14 14 H512 a14 14 90 0 1 -14 -14 V407 H142" fill="#ccd6ba" stroke="#ccd6ba" stroke-width="0"/>
		<rect x="498" y="381" width="142" height="52" fill="none" rx="14" stroke="#85956b" stroke-width="1.5"/>
		<line x1="498" y1="407" x2="640" y2="407" stroke="#85956b" stroke-width="1"/>
		<text x="506" y="399.6" fill="#27360c" font-family="Courier New" font-size="14">AvisUtilisateur</text>
	</g>
	<text x="574" y="579" fill="#726f83" font-family="Courier New" font-size="12">0,N</text>
	<text x="574" y="319" fill="#726f83" font-family="Courier New" font-size="12">1,1</text>
</g>

<!-- Association IMAGEARTICLE -->
<g>
	<line x1="95" y1="407" x2="255" y2="537" stroke="#726f83" stroke-width="1"/>
	<line x1="421" y1="407" x2="255" y2="537" stroke="#726f83" stroke-width="1"/>
	<g>
		<path d="M299 511 a14 14 90 0 1 14 14 V537 h-116 V525 a14 14 90 0 1 14 -14" fill="#b2bba4" stroke="#b2bba4" stroke-width="0"/>
		<path d="M313 537 v12 a14 14 90 0 1 -14 14 H211 a14 14 90 0 1 -14 -14 V537 H116" fill="#ccd6ba" stroke="#ccd6ba" stroke-width="0"/>
		<rect x="197" y="511" width="116" height="52" fill="none" rx="14" stroke="#85956b" stroke-width="1.5"/>
		<line x1="197" y1="537" x2="313" y2="537" stroke="#85956b" stroke-width="1"/>
		<text x="204" y="529.6" fill="#27360c" font-family="Courier New" font-size="14">ImageArticle</text>
	</g>
	<text x="186" y="474.92" fill="#726f83" font-family="Courier New" font-size="12">0,N</text>
	<text x="349" y="439.32" fill="#726f83" font-family="Courier New" font-size="12">0,1</text>
</g>

<!-- Association IMAGEUTILISATEUR -->
<g>
	<line x1="421" y1="407" x2="421" y2="537" stroke="#726f83" stroke-width="1"/>
	<line x1="569" y1="685" x2="421" y2="537" stroke="#726f83" stroke-width="1"/>
	<g>
		<path d="M482 511 a14 14 90 0 1 14 14 V537 h-150 V525 a14 14 90 0 1 14 -14" fill="#b2bba4" stroke="#b2bba4" stroke-width="0"/>
		<path d="M496 537 v12 a14 14 90 0 1 -14 14 H360 a14 14 90 0 1 -14 -14 V537 H150" fill="#ccd6ba" stroke="#ccd6ba" stroke-width="0"/>
		<rect x="346" y="511" width="150" height="52" fill="none" rx="14" stroke="#85956b" stroke-width="1.5"/>
		<line x1="346" y1="537" x2="496" y2="537" stroke="#85956b" stroke-width="1"/>
		<text x="353" y="529.6" fill="#27360c" font-family="Courier New" font-size="14">ImageUtilisateur</text>
	</g>
	<text x="426" y="458" fill="#726f83" font-family="Courier New" font-size="12">0,1</text>
	<text x="468.93" y="579" fill="#726f83" font-family="Courier New" font-size="12">0,1</text>
</g>

<!-- Association ARTICLEUTILISATEUR -->
<g>
	<line x1="95" y1="407" x2="95" y2="685" stroke="#726f83" stroke-width="1"/>
	<line x1="569" y1="685" x2="95" y2="685" stroke="#726f83" stroke-width="1"/>
	<g>
		<path d="M165 659 a14 14 90 0 1 14 14 V685 h-168 V673 a14 14 90 0 1 14 -14" fill="#b2bba4" stroke="#b2bba4" stroke-width="0"/>
		<path d="M179 685 v12 a14 14 90 0 1 -14 14 H25 a14 14 90 0 1 -14 -14 V685 H168" fill="#ccd6ba" stroke="#ccd6ba" stroke-width="0"/>
		<rect x="11" y="659" width="168" height="52" fill="none" rx="14" stroke="#85956b" stroke-width="1.5"/>
		<line x1="11" y1="685" x2="179" y2="685" stroke="#85956b" stroke-width="1"/>
		<text x="19" y="677.6" fill="#27360c" font-family="Courier New" font-size="14">ArticleUtilisateur</text>
	</g>
	<text x="67" y="503" fill="#726f83" font-family="Courier New" font-size="12">1,1</text>
	<text x="443" y="701" fill="#726f83" font-family="Courier New" font-size="12">0,N</text>
</g>

<!-- Entity CATEGORIE -->
<g>
	<g>
		<rect x="199" y="9" width="112" height="26" fill="#97b8ff" stroke="none" stroke-width="0" opacity="1"/>
		<rect x="199" y="35" width="112" height="44" fill="#c0d4ff" stroke="none" stroke-width="0" opacity="1"/>
		<rect x="199" y="9" width="112" height="70" fill="none" stroke="#578dff" stroke-width="1.5" opacity="1"/>
		<line x1="199" y1="35" x2="311" y2="35" stroke="#578dff" stroke-width="1"/>
	</g>
	<text x="217" y="27.6" fill="#131114" font-family="Courier New" font-size="14">Categorie</text>
	<text x="204" y="53.6" fill="#3e3c42" font-family="Courier New" font-size="14">idCategorie</text>
	<line x1="204" y1="56" x2="298" y2="56" stroke="#3e3c42" stroke-width="1"/>
	<text x="204" y="71.6" fill="#3e3c42" font-family="Courier New" font-size="14">nomCategorie</text>
</g>

<!-- Entity SUPPORT -->
<g>
	<g>
		<rect x="373" y="9" width="96" height="26" fill="#97b8ff" stroke="none" stroke-width="0" opacity="1"/>
		<rect x="373" y="35" width="96" height="44" fill="#c0d4ff" stroke="none" stroke-width="0" opacity="1"/>
		<rect x="373" y="9" width="96" height="70" fill="none" stroke="#578dff" stroke-width="1.5" opacity="1"/>
		<line x1="373" y1="35" x2="469" y2="35" stroke="#578dff" stroke-width="1"/>
	</g>
	<text x="391" y="27.6" fill="#131114" font-family="Courier New" font-size="14">Support</text>
	<text x="378" y="53.6" fill="#3e3c42" font-family="Courier New" font-size="14">idSupport</text>
	<line x1="378" y1="56" x2="455" y2="56" stroke="#3e3c42" stroke-width="1"/>
	<text x="378" y="71.6" fill="#3e3c42" font-family="Courier New" font-size="14">nomSupport</text>
</g>

<!-- Entity JEU -->
<g>
	<g>
		<rect x="207" y="179" width="96" height="26" fill="#97b8ff" stroke="none" stroke-width="0" opacity="1"/>
		<rect x="207" y="205" width="96" height="98" fill="#c0d4ff" stroke="none" stroke-width="0" opacity="1"/>
		<rect x="207" y="179" width="96" height="124" fill="none" stroke="#578dff" stroke-width="1.5" opacity="1"/>
		<line x1="207" y1="205" x2="303" y2="205" stroke="#578dff" stroke-width="1"/>
	</g>
	<text x="242" y="197.6" fill="#131114" font-family="Courier New" font-size="14">Jeu</text>
	<text x="212" y="223.6" fill="#3e3c42" font-family="Courier New" font-size="14">idJeu</text>
	<line x1="212" y1="226" x2="255" y2="226" stroke="#3e3c42" stroke-width="1"/>
	<text x="212" y="241.6" fill="#3e3c42" font-family="Courier New" font-size="14">nom</text>
	<text x="212" y="259.6" fill="#3e3c42" font-family="Courier New" font-size="14">prix</text>
	<text x="212" y="277.6" fill="#3e3c42" font-family="Courier New" font-size="14">dateSortie</text>
	<text x="212" y="295.6" fill="#3e3c42" font-family="Courier New" font-size="14">synopsis</text>
</g>

<!-- Entity AVIS -->
<g>
	<g>
		<rect x="496" y="179" width="146" height="26" fill="#97b8ff" stroke="none" stroke-width="0" opacity="1"/>
		<rect x="496" y="205" width="146" height="98" fill="#c0d4ff" stroke="none" stroke-width="0" opacity="1"/>
		<rect x="496" y="179" width="146" height="124" fill="none" stroke="#578dff" stroke-width="1.5" opacity="1"/>
		<line x1="496" y1="205" x2="642" y2="205" stroke="#578dff" stroke-width="1"/>
	</g>
	<text x="552" y="197.6" fill="#131114" font-family="Courier New" font-size="14">Avis</text>
	<text x="501" y="223.6" fill="#3e3c42" font-family="Courier New" font-size="14">idAvis</text>
	<line x1="501" y1="226" x2="553" y2="226" stroke="#3e3c42" stroke-width="1"/>
	<text x="501" y="241.6" fill="#3e3c42" font-family="Courier New" font-size="14">titre</text>
	<text x="501" y="259.6" fill="#3e3c42" font-family="Courier New" font-size="14">texte</text>
	<text x="501" y="277.6" fill="#3e3c42" font-family="Courier New" font-size="14">noteAvis</text>
	<text x="501" y="295.6" fill="#3e3c42" font-family="Courier New" font-size="14">dateCreationAvis</text>
</g>

<!-- Entity ARTICLE -->
<g>
	<g>
		<rect x="9" y="327" width="172" height="26" fill="#97b8ff" stroke="none" stroke-width="0" opacity="1"/>
		<rect x="9" y="353" width="172" height="134" fill="#c0d4ff" stroke="none" stroke-width="0" opacity="1"/>
		<rect x="9" y="327" width="172" height="160" fill="none" stroke="#578dff" stroke-width="1.5" opacity="1"/>
		<line x1="9" y1="353" x2="181" y2="353" stroke="#578dff" stroke-width="1"/>
	</g>
	<text x="65" y="345.6" fill="#131114" font-family="Courier New" font-size="14">Article</text>
	<text x="14" y="371.6" fill="#3e3c42" font-family="Courier New" font-size="14">idArticle</text>
	<line x1="14" y1="374" x2="91" y2="374" stroke="#3e3c42" stroke-width="1"/>
	<text x="14" y="389.6" fill="#3e3c42" font-family="Courier New" font-size="14">titre</text>
	<text x="14" y="407.6" fill="#3e3c42" font-family="Courier New" font-size="14">contenu</text>
	<text x="14" y="425.6" fill="#3e3c42" font-family="Courier New" font-size="14">noteArticle</text>
	<text x="14" y="443.6" fill="#3e3c42" font-family="Courier New" font-size="14">caractéristiques</text>
	<text x="14" y="461.6" fill="#3e3c42" font-family="Courier New" font-size="14">dateCreationArticle</text>
	<text x="14" y="479.6" fill="#3e3c42" font-family="Courier New" font-size="14">dateModification</text>
</g>

<!-- Entity IMAGE -->
<g>
	<g>
		<rect x="377" y="372" width="88" height="26" fill="#97b8ff" stroke="none" stroke-width="0" opacity="1"/>
		<rect x="377" y="398" width="88" height="44" fill="#c0d4ff" stroke="none" stroke-width="0" opacity="1"/>
		<rect x="377" y="372" width="88" height="70" fill="none" stroke="#578dff" stroke-width="1.5" opacity="1"/>
		<line x1="377" y1="398" x2="465" y2="398" stroke="#578dff" stroke-width="1"/>
	</g>
	<text x="400" y="390.6" fill="#131114" font-family="Courier New" font-size="14">Image</text>
	<text x="382" y="416.6" fill="#3e3c42" font-family="Courier New" font-size="14">idImage</text>
	<line x1="382" y1="419" x2="442" y2="419" stroke="#3e3c42" stroke-width="1"/>
	<text x="382" y="434.6" fill="#3e3c42" font-family="Courier New" font-size="14">lienImage</text>
</g>

<!-- Entity UTILISATEUR -->
<g>
	<g>
		<rect x="471" y="587" width="196" height="26" fill="#97b8ff" stroke="none" stroke-width="0" opacity="1"/>
		<rect x="471" y="613" width="196" height="170" fill="#c0d4ff" stroke="none" stroke-width="0" opacity="1"/>
		<rect x="471" y="587" width="196" height="196" fill="none" stroke="#578dff" stroke-width="1.5" opacity="1"/>
		<line x1="471" y1="613" x2="667" y2="613" stroke="#578dff" stroke-width="1"/>
	</g>
	<text x="522" y="605.6" fill="#131114" font-family="Courier New" font-size="14">Utilisateur</text>
	<text x="476" y="631.6" fill="#3e3c42" font-family="Courier New" font-size="14">login</text>
	<line x1="476" y1="634" x2="519" y2="634" stroke="#3e3c42" stroke-width="1"/>
	<text x="476" y="649.6" fill="#3e3c42" font-family="Courier New" font-size="14">mdp</text>
	<text x="476" y="667.6" fill="#3e3c42" font-family="Courier New" font-size="14">nom</text>
	<text x="476" y="685.6" fill="#3e3c42" font-family="Courier New" font-size="14">prenom</text>
	<text x="476" y="703.6" fill="#3e3c42" font-family="Courier New" font-size="14">mel</text>
	<text x="476" y="721.6" fill="#3e3c42" font-family="Courier New" font-size="14">dateNaissance</text>
	<text x="476" y="739.6" fill="#3e3c42" font-family="Courier New" font-size="14">dateCreationCompte</text>
	<text x="476" y="757.6" fill="#3e3c42" font-family="Courier New" font-size="14">dateDerniereConnection</text>
	<text x="476" y="775.6" fill="#3e3c42" font-family="Courier New" font-size="14">role</text>
</g>
</svg>