<?xml version="1.0" encoding="utf-8"?>
<!-- Generated by Mocodo 4.3.2 -->
<svg width="638" height="681" viewBox="0 0 638 681" xmlns="http://www.w3.org/2000/svg">
<rect x="0" y="0" width="638" height="681" fill="none" stroke="none" stroke-width="0"/>

<!-- Entity CATEGORIE -->
<g>
	<g>
		<rect x="72" y="9" width="112" height="26" fill="#97b8ff" stroke="none" stroke-width="0" opacity="1"/>
		<rect x="72" y="35" width="112" height="44" fill="#c0d4ff" stroke="none" stroke-width="0" opacity="1"/>
		<rect x="72" y="9" width="112" height="70" fill="none" stroke="#578dff" stroke-width="1.5" opacity="1"/>
		<line x1="72" y1="35" x2="184" y2="35" stroke="#578dff" stroke-width="1"/>
	</g>
	<text x="90" y="27.6" fill="#131114" font-family="Courier New" font-size="14">Categorie</text>
	<text x="77" y="53.6" fill="#3e3c42" font-family="Courier New" font-size="14">idCategorie</text>
	<line x1="77" y1="56" x2="171" y2="56" stroke="#3e3c42" stroke-width="1"/>
	<text x="77" y="71.6" fill="#3e3c42" font-family="Courier New" font-size="14">nomCategorie</text>
</g>

<!-- Entity SUPPORT -->
<g>
	<g>
		<rect x="284" y="9" width="96" height="26" fill="#97b8ff" stroke="none" stroke-width="0" opacity="1"/>
		<rect x="284" y="35" width="96" height="44" fill="#c0d4ff" stroke="none" stroke-width="0" opacity="1"/>
		<rect x="284" y="9" width="96" height="70" fill="none" stroke="#578dff" stroke-width="1.5" opacity="1"/>
		<line x1="284" y1="35" x2="380" y2="35" stroke="#578dff" stroke-width="1"/>
	</g>
	<text x="302" y="27.6" fill="#131114" font-family="Courier New" font-size="14">Support</text>
	<text x="289" y="53.6" fill="#3e3c42" font-family="Courier New" font-size="14">idSupport</text>
	<line x1="289" y1="56" x2="366" y2="56" stroke="#3e3c42" stroke-width="1"/>
	<text x="289" y="71.6" fill="#3e3c42" font-family="Courier New" font-size="14">nomSupport</text>
</g>

<!-- Entity CATEGORIESJEU -->
<g>
	<g>
		<rect x="68" y="103" width="120" height="26" fill="#97b8ff" stroke="none" stroke-width="0" opacity="1"/>
		<rect x="68" y="129" width="120" height="44" fill="#c0d4ff" stroke="none" stroke-width="0" opacity="1"/>
		<rect x="68" y="103" width="120" height="70" fill="none" stroke="#578dff" stroke-width="1.5" opacity="1"/>
		<line x1="68" y1="129" x2="188" y2="129" stroke="#578dff" stroke-width="1"/>
	</g>
	<text x="73" y="121.6" fill="#131114" font-family="Courier New" font-size="14">CategoriesJeu</text>
	<text x="73" y="147.6" fill="#3e3c42" font-family="Courier New" font-size="14">#idJeu</text>
	<line x1="73" y1="150" x2="125" y2="150" stroke="#3e3c42" stroke-width="1"/>
	<text x="73" y="165.6" fill="#3e3c42" font-family="Courier New" font-size="14">#idCategorie</text>
	<line x1="73" y1="168" x2="175" y2="168" stroke="#3e3c42" stroke-width="1"/>
</g>

<!-- Entity SUPPORTSJEU -->
<g>
	<g>
		<rect x="280" y="103" width="104" height="26" fill="#97b8ff" stroke="none" stroke-width="0" opacity="1"/>
		<rect x="280" y="129" width="104" height="44" fill="#c0d4ff" stroke="none" stroke-width="0" opacity="1"/>
		<rect x="280" y="103" width="104" height="70" fill="none" stroke="#578dff" stroke-width="1.5" opacity="1"/>
		<line x1="280" y1="129" x2="384" y2="129" stroke="#578dff" stroke-width="1"/>
	</g>
	<text x="285" y="121.6" fill="#131114" font-family="Courier New" font-size="14">SupportsJeu</text>
	<text x="285" y="147.6" fill="#3e3c42" font-family="Courier New" font-size="14">#idJeu</text>
	<line x1="285" y1="150" x2="337" y2="150" stroke="#3e3c42" stroke-width="1"/>
	<text x="285" y="165.6" fill="#3e3c42" font-family="Courier New" font-size="14">#idSupport</text>
	<line x1="285" y1="168" x2="370" y2="168" stroke="#3e3c42" stroke-width="1"/>
</g>

<!-- Entity JEU -->
<g>
	<g>
		<rect x="284" y="197" width="96" height="26" fill="#97b8ff" stroke="none" stroke-width="0" opacity="1"/>
		<rect x="284" y="223" width="96" height="98" fill="#c0d4ff" stroke="none" stroke-width="0" opacity="1"/>
		<rect x="284" y="197" width="96" height="124" fill="none" stroke="#578dff" stroke-width="1.5" opacity="1"/>
		<line x1="284" y1="223" x2="380" y2="223" stroke="#578dff" stroke-width="1"/>
	</g>
	<text x="319" y="215.6" fill="#131114" font-family="Courier New" font-size="14">Jeu</text>
	<text x="289" y="241.6" fill="#3e3c42" font-family="Courier New" font-size="14">idJeu</text>
	<line x1="289" y1="244" x2="332" y2="244" stroke="#3e3c42" stroke-width="1"/>
	<text x="289" y="259.6" fill="#3e3c42" font-family="Courier New" font-size="14">nom</text>
	<text x="289" y="277.6" fill="#3e3c42" font-family="Courier New" font-size="14">prix</text>
	<text x="289" y="295.6" fill="#3e3c42" font-family="Courier New" font-size="14">dateSortie</text>
	<text x="289" y="313.6" fill="#3e3c42" font-family="Courier New" font-size="14">synopsis</text>
</g>

<!-- Entity ARTICLE -->
<g>
	<g>
		<rect x="42" y="283" width="172" height="26" fill="#97b8ff" stroke="none" stroke-width="0" opacity="1"/>
		<rect x="42" y="309" width="172" height="188" fill="#c0d4ff" stroke="none" stroke-width="0" opacity="1"/>
		<rect x="42" y="283" width="172" height="214" fill="none" stroke="#578dff" stroke-width="1.5" opacity="1"/>
		<line x1="42" y1="309" x2="214" y2="309" stroke="#578dff" stroke-width="1"/>
	</g>
	<text x="98" y="301.6" fill="#131114" font-family="Courier New" font-size="14">Article</text>
	<text x="47" y="327.6" fill="#3e3c42" font-family="Courier New" font-size="14">idArticle</text>
	<line x1="47" y1="330" x2="124" y2="330" stroke="#3e3c42" stroke-width="1"/>
	<text x="47" y="345.6" fill="#3e3c42" font-family="Courier New" font-size="14">titre</text>
	<text x="47" y="363.6" fill="#3e3c42" font-family="Courier New" font-size="14">contenu</text>
	<text x="47" y="381.6" fill="#3e3c42" font-family="Courier New" font-size="14">noteArticle</text>
	<text x="47" y="399.6" fill="#3e3c42" font-family="Courier New" font-size="14">caractéristiques</text>
	<text x="47" y="417.6" fill="#3e3c42" font-family="Courier New" font-size="14">dateCreationArticle</text>
	<text x="47" y="435.6" fill="#3e3c42" font-family="Courier New" font-size="14">dateModification</text>
	<text x="47" y="453.6" fill="#3e3c42" font-family="Courier New" font-size="14">#idJeu</text>
	<text x="47" y="471.6" fill="#3e3c42" font-family="Courier New" font-size="14">#idImage</text>
	<text x="47" y="489.6" fill="#3e3c42" font-family="Courier New" font-size="14">#login</text>
</g>

<!-- Entity AVIS -->
<g>
	<g>
		<rect x="450" y="310" width="146" height="26" fill="#97b8ff" stroke="none" stroke-width="0" opacity="1"/>
		<rect x="450" y="336" width="146" height="134" fill="#c0d4ff" stroke="none" stroke-width="0" opacity="1"/>
		<rect x="450" y="310" width="146" height="160" fill="none" stroke="#578dff" stroke-width="1.5" opacity="1"/>
		<line x1="450" y1="336" x2="596" y2="336" stroke="#578dff" stroke-width="1"/>
	</g>
	<text x="506" y="328.6" fill="#131114" font-family="Courier New" font-size="14">Avis</text>
	<text x="455" y="354.6" fill="#3e3c42" font-family="Courier New" font-size="14">idAvis</text>
	<line x1="455" y1="357" x2="507" y2="357" stroke="#3e3c42" stroke-width="1"/>
	<text x="455" y="372.6" fill="#3e3c42" font-family="Courier New" font-size="14">titre</text>
	<text x="455" y="390.6" fill="#3e3c42" font-family="Courier New" font-size="14">texte</text>
	<text x="455" y="408.6" fill="#3e3c42" font-family="Courier New" font-size="14">noteAvis</text>
	<text x="455" y="426.6" fill="#3e3c42" font-family="Courier New" font-size="14">dateCreationAvis</text>
	<text x="455" y="444.6" fill="#3e3c42" font-family="Courier New" font-size="14">#idJeu</text>
	<text x="455" y="462.6" fill="#3e3c42" font-family="Courier New" font-size="14">#login</text>
</g>

<!-- Entity IMAGE -->
<g>
	<g>
		<rect x="80" y="539" width="96" height="26" fill="#97b8ff" stroke="none" stroke-width="0" opacity="1"/>
		<rect x="80" y="565" width="96" height="62" fill="#c0d4ff" stroke="none" stroke-width="0" opacity="1"/>
		<rect x="80" y="539" width="96" height="88" fill="none" stroke="#578dff" stroke-width="1.5" opacity="1"/>
		<line x1="80" y1="565" x2="176" y2="565" stroke="#578dff" stroke-width="1"/>
	</g>
	<text x="107" y="557.6" fill="#131114" font-family="Courier New" font-size="14">Image</text>
	<text x="85" y="583.6" fill="#3e3c42" font-family="Courier New" font-size="14">idImage</text>
	<line x1="85" y1="586" x2="145" y2="586" stroke="#3e3c42" stroke-width="1"/>
	<text x="85" y="601.6" fill="#3e3c42" font-family="Courier New" font-size="14">lienImage</text>
	<text x="85" y="619.6" fill="#3e3c42" font-family="Courier New" font-size="14">#idArticle</text>
</g>

<!-- Entity UTILISATEUR -->
<g>
	<g>
		<rect x="463" y="494" width="120" height="26" fill="#97b8ff" stroke="none" stroke-width="0" opacity="1"/>
		<rect x="463" y="520" width="120" height="152" fill="#c0d4ff" stroke="none" stroke-width="0" opacity="1"/>
		<rect x="463" y="494" width="120" height="178" fill="none" stroke="#578dff" stroke-width="1.5" opacity="1"/>
		<line x1="463" y1="520" x2="583" y2="520" stroke="#578dff" stroke-width="1"/>
	</g>
	<text x="476" y="512.6" fill="#131114" font-family="Courier New" font-size="14">Utilisateur</text>
	<text x="468" y="538.6" fill="#3e3c42" font-family="Courier New" font-size="14">login</text>
	<line x1="468" y1="541" x2="511" y2="541" stroke="#3e3c42" stroke-width="1"/>
	<text x="468" y="556.6" fill="#3e3c42" font-family="Courier New" font-size="14">mdp</text>
	<text x="468" y="574.6" fill="#3e3c42" font-family="Courier New" font-size="14">nom</text>
	<text x="468" y="592.6" fill="#3e3c42" font-family="Courier New" font-size="14">prenom</text>
	<text x="468" y="610.6" fill="#3e3c42" font-family="Courier New" font-size="14">mel</text>
	<text x="468" y="628.6" fill="#3e3c42" font-family="Courier New" font-size="14">dateNaissance</text>
	<text x="468" y="646.6" fill="#3e3c42" font-family="Courier New" font-size="14">modo</text>
	<text x="468" y="664.6" fill="#3e3c42" font-family="Courier New" font-size="14">#idImage</text>
</g>

<!-- Link from &quot;idJeu&quot; (CATEGORIESJEU) to &quot;idJeu&quot; (JEU) -->
<path d="M188 143 C236 190 220 237 284 237" fill="none" stroke="#726f83" stroke-width="1"/>
<polygon points="284 237 272 243 276 237 272 231" fill="#726f83" stroke-width="0"/>
<circle cx="188" cy="143" r="1.5" stroke="#726f83" stroke-width="1.5" fill="#726f83"/>

<!-- Link from &quot;idCategorie&quot; (CATEGORIESJEU) to &quot;idCategorie&quot; (CATEGORIE) -->
<path d="M68 161 C12 105 16 49 72 49" fill="none" stroke="#726f83" stroke-width="1"/>
<polygon points="72 49 60 55 64 49 60 43" fill="#726f83" stroke-width="0"/>
<circle cx="68" cy="161" r="1.5" stroke="#726f83" stroke-width="1.5" fill="#726f83"/>

<!-- Link from &quot;idJeu&quot; (SUPPORTSJEU) to &quot;idJeu&quot; (JEU) -->
<path d="M384 143 C440 190 436 237 380 237" fill="none" stroke="#726f83" stroke-width="1"/>
<polygon points="380 237 392 231 388 237 392 243" fill="#726f83" stroke-width="0"/>
<circle cx="384" cy="143" r="1.5" stroke="#726f83" stroke-width="1.5" fill="#726f83"/>

<!-- Link from &quot;idSupport&quot; (SUPPORTSJEU) to &quot;idSupport&quot; (SUPPORT) -->
<path d="M280 161 C224 105 228 49 284 49" fill="none" stroke="#726f83" stroke-width="1"/>
<polygon points="284 49 272 55 276 49 272 43" fill="#726f83" stroke-width="0"/>
<circle cx="280" cy="161" r="1.5" stroke="#726f83" stroke-width="1.5" fill="#726f83"/>

<!-- Link from &quot;idJeu&quot; (ARTICLE) to &quot;idJeu&quot; (JEU) -->
<path d="M214 449 C249 343 237.33 237 284 237" fill="none" stroke="#726f83" stroke-width="1"/>
<polygon points="284 237 272 243 276 237 272 231" fill="#726f83" stroke-width="0"/>
<circle cx="214" cy="449" r="1.5" stroke="#726f83" stroke-width="1.5" fill="#726f83"/>

<!-- Link from &quot;idImage&quot; (ARTICLE) to &quot;idImage&quot; (IMAGE) -->
<path d="M214 467 C270 523 232 579 176 579" fill="none" stroke="#726f83" stroke-width="1"/>
<polygon points="176 579 188 573 184 579 188 585" fill="#726f83" stroke-width="0"/>
<circle cx="214" cy="467" r="1.5" stroke="#726f83" stroke-width="1.5" fill="#726f83"/>

<!-- Link from &quot;login&quot; (ARTICLE) to &quot;login&quot; (UTILISATEUR) -->
<path d="M214 485 C338.5 509.5 297 534 463 534" fill="none" stroke="#726f83" stroke-width="1"/>
<polygon points="463 534 451 540 455 534 451 528" fill="#726f83" stroke-width="0"/>
<circle cx="214" cy="485" r="1.5" stroke="#726f83" stroke-width="1.5" fill="#726f83"/>

<!-- Link from &quot;idJeu&quot; (AVIS) to &quot;idJeu&quot; (JEU) -->
<path d="M450 440 C415 338.5 426.67 237 380 237" fill="none" stroke="#726f83" stroke-width="1"/>
<polygon points="380 237 392 231 388 237 392 243" fill="#726f83" stroke-width="0"/>
<circle cx="450" cy="440" r="1.5" stroke="#726f83" stroke-width="1.5" fill="#726f83"/>

<!-- Link from &quot;login&quot; (AVIS) to &quot;login&quot; (UTILISATEUR) -->
<path d="M596 458 C652 496 639 534 583 534" fill="none" stroke="#726f83" stroke-width="1"/>
<polygon points="583 534 595 528 591 534 595 540" fill="#726f83" stroke-width="0"/>
<circle cx="596" cy="458" r="1.5" stroke="#726f83" stroke-width="1.5" fill="#726f83"/>

<!-- Link from &quot;idArticle&quot; (IMAGE) to &quot;idArticle&quot; (ARTICLE) -->
<path d="M176 615 C232 469 270 323 214 323" fill="none" stroke="#726f83" stroke-width="1"/>
<polygon points="214 323 226 317 222 323 226 329" fill="#726f83" stroke-width="0"/>
<circle cx="176" cy="615" r="1.5" stroke="#726f83" stroke-width="1.5" fill="#726f83"/>

<!-- Link from &quot;idImage&quot; (UTILISATEUR) to &quot;idImage&quot; (IMAGE) -->
<path d="M463 660 C319.5 619.5 367.33 579 176 579" fill="none" stroke="#726f83" stroke-width="1"/>
<polygon points="176 579 188 573 184 579 188 585" fill="#726f83" stroke-width="0"/>
<circle cx="463" cy="660" r="1.5" stroke="#726f83" stroke-width="1.5" fill="#726f83"/>
</svg>