<?xml version="1.0" encoding="utf-8"?>
<!-- Generated by Mocodo 4.3.2 -->
<svg width="651" height="720" viewBox="0 0 651 720" xmlns="http://www.w3.org/2000/svg">
<rect x="0" y="0" width="651" height="720" fill="none" stroke="none" stroke-width="0"/>

<!-- Association CATEGORIESJEU -->
<g>
	<line x1="369" y1="241" x2="182" y2="129" stroke="#726f83" stroke-width="1"/>
	<line x1="182" y1="44" x2="182" y2="129" stroke="#726f83" stroke-width="1"/>
	<g>
		<path d="M230 103 a14 14 90 0 1 14 14 V129 h-124 V117 a14 14 90 0 1 14 -14" fill="#b2bba4" stroke="#b2bba4" stroke-width="0"/>
		<path d="M244 129 v12 a14 14 90 0 1 -14 14 H134 a14 14 90 0 1 -14 -14 V129 H124" fill="#ccd6ba" stroke="#ccd6ba" stroke-width="0"/>
		<rect x="120" y="103" width="124" height="52" fill="none" rx="14" stroke="#85956b" stroke-width="1.5"/>
		<line x1="120" y1="129" x2="244" y2="129" stroke="#85956b" stroke-width="1"/>
		<text x="127" y="121.6" fill="#27360c" font-family="Courier New" font-size="14">CategoriesJeu</text>
	</g>
	<text x="293" y="223.61" fill="#726f83" font-family="Courier New" font-size="12">1,N</text>
	<text x="187" y="95" fill="#726f83" font-family="Courier New" font-size="12">0,N</text>
</g>

<!-- Association SUPPORTSJEU -->
<g>
	<line x1="369" y1="241" x2="369" y2="129" stroke="#726f83" stroke-width="1"/>
	<line x1="369" y1="44" x2="369" y2="129" stroke="#726f83" stroke-width="1"/>
	<g>
		<path d="M409 103 a14 14 90 0 1 14 14 V129 h-108 V117 a14 14 90 0 1 14 -14" fill="#b2bba4" stroke="#b2bba4" stroke-width="0"/>
		<path d="M423 129 v12 a14 14 90 0 1 -14 14 H329 a14 14 90 0 1 -14 -14 V129 H108" fill="#ccd6ba" stroke="#ccd6ba" stroke-width="0"/>
		<rect x="315" y="103" width="108" height="52" fill="none" rx="14" stroke="#85956b" stroke-width="1.5"/>
		<line x1="315" y1="129" x2="423" y2="129" stroke="#85956b" stroke-width="1"/>
		<text x="322" y="121.6" fill="#27360c" font-family="Courier New" font-size="14">SupportsJeu</text>
	</g>
	<text x="374" y="171" fill="#726f83" font-family="Courier New" font-size="12">1,N</text>
	<text x="374" y="95" fill="#726f83" font-family="Courier New" font-size="12">0,N</text>
</g>

<!-- Association ARTICLEJEU -->
<g>
	<line x1="182" y1="371" x2="182" y2="241" stroke="#726f83" stroke-width="1"/>
	<line x1="369" y1="241" x2="182" y2="241" stroke="#726f83" stroke-width="1"/>
	<g>
		<path d="M218 215 a14 14 90 0 1 14 14 V241 h-100 V229 a14 14 90 0 1 14 -14" fill="#b2bba4" stroke="#b2bba4" stroke-width="0"/>
		<path d="M232 241 v12 a14 14 90 0 1 -14 14 H146 a14 14 90 0 1 -14 -14 V241 H100" fill="#ccd6ba" stroke="#ccd6ba" stroke-width="0"/>
		<rect x="132" y="215" width="100" height="52" fill="none" rx="14" stroke="#85956b" stroke-width="1.5"/>
		<line x1="132" y1="241" x2="232" y2="241" stroke="#85956b" stroke-width="1"/>
		<text x="140" y="233.6" fill="#27360c" font-family="Courier New" font-size="14">ArticleJeu</text>
	</g>
	<text x="187" y="283" fill="#726f83" font-family="Courier New" font-size="12">1,1</text>
	<text x="293" y="257" fill="#726f83" font-family="Courier New" font-size="12">0,1</text>
</g>

<!-- Association AVISJEU -->
<g>
	<line x1="369" y1="241" x2="369" y2="371" stroke="#726f83" stroke-width="1"/>
	<line x1="569" y1="371" x2="369" y2="371" stroke="#726f83" stroke-width="1"/>
	<g>
		<path d="M392 345 a14 14 90 0 1 14 14 V371 h-74 V359 a14 14 90 0 1 14 -14" fill="#b2bba4" stroke="#b2bba4" stroke-width="0"/>
		<path d="M406 371 v12 a14 14 90 0 1 -14 14 H346 a14 14 90 0 1 -14 -14 V371 H74" fill="#ccd6ba" stroke="#ccd6ba" stroke-width="0"/>
		<rect x="332" y="345" width="74" height="52" fill="none" rx="14" stroke="#85956b" stroke-width="1.5"/>
		<line x1="332" y1="371" x2="406" y2="371" stroke="#85956b" stroke-width="1"/>
		<text x="339" y="363.6" fill="#27360c" font-family="Courier New" font-size="14">AvisJeu</text>
	</g>
	<text x="374" y="319" fill="#726f83" font-family="Courier New" font-size="12">0,N</text>
	<text x="468" y="387" fill="#726f83" font-family="Courier New" font-size="12">1,1</text>
</g>

<!-- Association JAQUETTE -->
<g>
	<line x1="182" y1="371" x2="50" y2="501" stroke="#726f83" stroke-width="1"/>
	<line x1="182" y1="631" x2="50" y2="501" stroke="#726f83" stroke-width="1"/>
	<g>
		<path d="M77 475 a14 14 90 0 1 14 14 V501 h-82 V489 a14 14 90 0 1 14 -14" fill="#b2bba4" stroke="#b2bba4" stroke-width="0"/>
		<path d="M91 501 v12 a14 14 90 0 1 -14 14 H23 a14 14 90 0 1 -14 -14 V501 H82" fill="#ccd6ba" stroke="#ccd6ba" stroke-width="0"/>
		<rect x="9" y="475" width="82" height="52" fill="none" rx="14" stroke="#85956b" stroke-width="1.5"/>
		<line x1="9" y1="501" x2="91" y2="501" stroke="#85956b" stroke-width="1"/>
		<text x="16" y="493.6" fill="#27360c" font-family="Courier New" font-size="14">jaquette</text>
	</g>
	<text x="98.77" y="467" fill="#726f83" font-family="Courier New" font-size="12">1,1</text>
	<text x="144.47" y="588" fill="#726f83" font-family="Courier New" font-size="12">0,1</text>
</g>

<!-- Association IMAGEARTICLE -->
<g>
	<line x1="182" y1="371" x2="182" y2="501" stroke="#726f83" stroke-width="1"/>
	<line x1="182" y1="631" x2="182" y2="501" stroke="#726f83" stroke-width="1"/>
	<g>
		<path d="M226 475 a14 14 90 0 1 14 14 V501 h-116 V489 a14 14 90 0 1 14 -14" fill="#b2bba4" stroke="#b2bba4" stroke-width="0"/>
		<path d="M240 501 v12 a14 14 90 0 1 -14 14 H138 a14 14 90 0 1 -14 -14 V501 H116" fill="#ccd6ba" stroke="#ccd6ba" stroke-width="0"/>
		<rect x="124" y="475" width="116" height="52" fill="none" rx="14" stroke="#85956b" stroke-width="1.5"/>
		<line x1="124" y1="501" x2="240" y2="501" stroke="#85956b" stroke-width="1"/>
		<text x="131" y="493.6" fill="#27360c" font-family="Courier New" font-size="14">ImageArticle</text>
	</g>
	<text x="187" y="467" fill="#726f83" font-family="Courier New" font-size="12">0,N</text>
	<text x="187" y="588" fill="#726f83" font-family="Courier New" font-size="12">0,1</text>
</g>

<!-- Association ADMINISTRATEURARTICLE -->
<g>
	<line x1="182" y1="371" x2="369" y2="501" stroke="#726f83" stroke-width="1"/>
	<line x1="569" y1="631" x2="369" y2="501" stroke="#726f83" stroke-width="1"/>
	<g>
		<path d="M451 475 a14 14 90 0 1 14 14 V501 h-192 V489 a14 14 90 0 1 14 -14" fill="#b2bba4" stroke="#b2bba4" stroke-width="0"/>
		<path d="M465 501 v12 a14 14 90 0 1 -14 14 H287 a14 14 90 0 1 -14 -14 V501 H192" fill="#ccd6ba" stroke="#ccd6ba" stroke-width="0"/>
		<rect x="273" y="475" width="192" height="52" fill="none" rx="14" stroke="#85956b" stroke-width="1.5"/>
		<line x1="273" y1="501" x2="465" y2="501" stroke="#85956b" stroke-width="1"/>
		<text x="280" y="493.6" fill="#27360c" font-family="Courier New" font-size="14">AdministrateurArticle</text>
	</g>
	<text x="273" y="428.09" fill="#726f83" font-family="Courier New" font-size="12">1,1</text>
	<text x="481" y="603.0" fill="#726f83" font-family="Courier New" font-size="12">0,N</text>
</g>

<!-- Association AVISUTILISATEUR -->
<g>
	<line x1="569" y1="631" x2="569" y2="501" stroke="#726f83" stroke-width="1"/>
	<line x1="569" y1="371" x2="569" y2="501" stroke="#726f83" stroke-width="1"/>
	<g>
		<path d="M626 475 a14 14 90 0 1 14 14 V501 h-142 V489 a14 14 90 0 1 14 -14" fill="#b2bba4" stroke="#b2bba4" stroke-width="0"/>
		<path d="M640 501 v12 a14 14 90 0 1 -14 14 H512 a14 14 90 0 1 -14 -14 V501 H142" fill="#ccd6ba" stroke="#ccd6ba" stroke-width="0"/>
		<rect x="498" y="475" width="142" height="52" fill="none" rx="14" stroke="#85956b" stroke-width="1.5"/>
		<line x1="498" y1="501" x2="640" y2="501" stroke="#85956b" stroke-width="1"/>
		<text x="506" y="493.6" fill="#27360c" font-family="Courier New" font-size="14">AvisUtilisateur</text>
	</g>
	<text x="574" y="543" fill="#726f83" font-family="Courier New" font-size="12">0,N</text>
	<text x="574" y="449" fill="#726f83" font-family="Courier New" font-size="12">1,1</text>
</g>

<!-- Association IMAGEUTILISATEUR -->
<g>
	<line x1="182" y1="631" x2="369" y2="631" stroke="#726f83" stroke-width="1"/>
	<line x1="569" y1="631" x2="369" y2="631" stroke="#726f83" stroke-width="1"/>
	<g>
		<path d="M430 605 a14 14 90 0 1 14 14 V631 h-150 V619 a14 14 90 0 1 14 -14" fill="#b2bba4" stroke="#b2bba4" stroke-width="0"/>
		<path d="M444 631 v12 a14 14 90 0 1 -14 14 H308 a14 14 90 0 1 -14 -14 V631 H150" fill="#ccd6ba" stroke="#ccd6ba" stroke-width="0"/>
		<rect x="294" y="605" width="150" height="52" fill="none" rx="14" stroke="#85956b" stroke-width="1.5"/>
		<line x1="294" y1="631" x2="444" y2="631" stroke="#85956b" stroke-width="1"/>
		<text x="301" y="623.6" fill="#27360c" font-family="Courier New" font-size="14">ImageUtilisateur</text>
	</g>
	<text x="231" y="647" fill="#726f83" font-family="Courier New" font-size="12">0,1</text>
	<text x="481" y="647" fill="#726f83" font-family="Courier New" font-size="12">0,1</text>
</g>

<!-- Entity CATEGORIE -->
<g>
	<g>
		<rect x="126" y="9" width="112" height="26" fill="#97b8ff" stroke="none" stroke-width="0" opacity="1"/>
		<rect x="126" y="35" width="112" height="44" fill="#c0d4ff" stroke="none" stroke-width="0" opacity="1"/>
		<rect x="126" y="9" width="112" height="70" fill="none" stroke="#578dff" stroke-width="1.5" opacity="1"/>
		<line x1="126" y1="35" x2="238" y2="35" stroke="#578dff" stroke-width="1"/>
	</g>
	<text x="144" y="27.6" fill="#131114" font-family="Courier New" font-size="14">Categorie</text>
	<text x="131" y="53.6" fill="#3e3c42" font-family="Courier New" font-size="14">idCategorie</text>
	<line x1="131" y1="56" x2="225" y2="56" stroke="#3e3c42" stroke-width="1"/>
	<text x="131" y="71.6" fill="#3e3c42" font-family="Courier New" font-size="14">nomCategorie</text>
</g>

<!-- Entity SUPPORT -->
<g>
	<g>
		<rect x="321" y="9" width="96" height="26" fill="#97b8ff" stroke="none" stroke-width="0" opacity="1"/>
		<rect x="321" y="35" width="96" height="44" fill="#c0d4ff" stroke="none" stroke-width="0" opacity="1"/>
		<rect x="321" y="9" width="96" height="70" fill="none" stroke="#578dff" stroke-width="1.5" opacity="1"/>
		<line x1="321" y1="35" x2="417" y2="35" stroke="#578dff" stroke-width="1"/>
	</g>
	<text x="339" y="27.6" fill="#131114" font-family="Courier New" font-size="14">Support</text>
	<text x="326" y="53.6" fill="#3e3c42" font-family="Courier New" font-size="14">idSupport</text>
	<line x1="326" y1="56" x2="403" y2="56" stroke="#3e3c42" stroke-width="1"/>
	<text x="326" y="71.6" fill="#3e3c42" font-family="Courier New" font-size="14">nomSupport</text>
</g>

<!-- Entity JEU -->
<g>
	<g>
		<rect x="321" y="179" width="96" height="26" fill="#97b8ff" stroke="none" stroke-width="0" opacity="1"/>
		<rect x="321" y="205" width="96" height="98" fill="#c0d4ff" stroke="none" stroke-width="0" opacity="1"/>
		<rect x="321" y="179" width="96" height="124" fill="none" stroke="#578dff" stroke-width="1.5" opacity="1"/>
		<line x1="321" y1="205" x2="417" y2="205" stroke="#578dff" stroke-width="1"/>
	</g>
	<text x="356" y="197.6" fill="#131114" font-family="Courier New" font-size="14">Jeu</text>
	<text x="326" y="223.6" fill="#3e3c42" font-family="Courier New" font-size="14">idJeu</text>
	<line x1="326" y1="226" x2="369" y2="226" stroke="#3e3c42" stroke-width="1"/>
	<text x="326" y="241.6" fill="#3e3c42" font-family="Courier New" font-size="14">nom</text>
	<text x="326" y="259.6" fill="#3e3c42" font-family="Courier New" font-size="14">prix</text>
	<text x="326" y="277.6" fill="#3e3c42" font-family="Courier New" font-size="14">dateSortie</text>
	<text x="326" y="295.6" fill="#3e3c42" font-family="Courier New" font-size="14">synopsis</text>
</g>

<!-- Entity ARTICLE -->
<g>
	<g>
		<rect x="96" y="291" width="172" height="26" fill="#97b8ff" stroke="none" stroke-width="0" opacity="1"/>
		<rect x="96" y="317" width="172" height="134" fill="#c0d4ff" stroke="none" stroke-width="0" opacity="1"/>
		<rect x="96" y="291" width="172" height="160" fill="none" stroke="#578dff" stroke-width="1.5" opacity="1"/>
		<line x1="96" y1="317" x2="268" y2="317" stroke="#578dff" stroke-width="1"/>
	</g>
	<text x="152" y="309.6" fill="#131114" font-family="Courier New" font-size="14">Article</text>
	<text x="101" y="335.6" fill="#3e3c42" font-family="Courier New" font-size="14">idArticle</text>
	<line x1="101" y1="338" x2="178" y2="338" stroke="#3e3c42" stroke-width="1"/>
	<text x="101" y="353.6" fill="#3e3c42" font-family="Courier New" font-size="14">titre</text>
	<text x="101" y="371.6" fill="#3e3c42" font-family="Courier New" font-size="14">contenu</text>
	<text x="101" y="389.6" fill="#3e3c42" font-family="Courier New" font-size="14">noteArticle</text>
	<text x="101" y="407.6" fill="#3e3c42" font-family="Courier New" font-size="14">caractéristiques</text>
	<text x="101" y="425.6" fill="#3e3c42" font-family="Courier New" font-size="14">dateCreationArticle</text>
	<text x="101" y="443.6" fill="#3e3c42" font-family="Courier New" font-size="14">dateModification</text>
</g>

<!-- Entity AVIS -->
<g>
	<g>
		<rect x="496" y="309" width="146" height="26" fill="#97b8ff" stroke="none" stroke-width="0" opacity="1"/>
		<rect x="496" y="335" width="146" height="98" fill="#c0d4ff" stroke="none" stroke-width="0" opacity="1"/>
		<rect x="496" y="309" width="146" height="124" fill="none" stroke="#578dff" stroke-width="1.5" opacity="1"/>
		<line x1="496" y1="335" x2="642" y2="335" stroke="#578dff" stroke-width="1"/>
	</g>
	<text x="552" y="327.6" fill="#131114" font-family="Courier New" font-size="14">Avis</text>
	<text x="501" y="353.6" fill="#3e3c42" font-family="Courier New" font-size="14">idAvis</text>
	<line x1="501" y1="356" x2="553" y2="356" stroke="#3e3c42" stroke-width="1"/>
	<text x="501" y="371.6" fill="#3e3c42" font-family="Courier New" font-size="14">titre</text>
	<text x="501" y="389.6" fill="#3e3c42" font-family="Courier New" font-size="14">texte</text>
	<text x="501" y="407.6" fill="#3e3c42" font-family="Courier New" font-size="14">noteAvis</text>
	<text x="501" y="425.6" fill="#3e3c42" font-family="Courier New" font-size="14">dateCreationAvis</text>
</g>

<!-- Entity IMAGE -->
<g>
	<g>
		<rect x="138" y="596" width="88" height="26" fill="#97b8ff" stroke="none" stroke-width="0" opacity="1"/>
		<rect x="138" y="622" width="88" height="44" fill="#c0d4ff" stroke="none" stroke-width="0" opacity="1"/>
		<rect x="138" y="596" width="88" height="70" fill="none" stroke="#578dff" stroke-width="1.5" opacity="1"/>
		<line x1="138" y1="622" x2="226" y2="622" stroke="#578dff" stroke-width="1"/>
	</g>
	<text x="161" y="614.6" fill="#131114" font-family="Courier New" font-size="14">Image</text>
	<text x="143" y="640.6" fill="#3e3c42" font-family="Courier New" font-size="14">idImage</text>
	<line x1="143" y1="643" x2="203" y2="643" stroke="#3e3c42" stroke-width="1"/>
	<text x="143" y="658.6" fill="#3e3c42" font-family="Courier New" font-size="14">lienImage</text>
</g>

<!-- Entity UTILISATEUR -->
<g>
	<g>
		<rect x="509" y="551" width="120" height="26" fill="#97b8ff" stroke="none" stroke-width="0" opacity="1"/>
		<rect x="509" y="577" width="120" height="134" fill="#c0d4ff" stroke="none" stroke-width="0" opacity="1"/>
		<rect x="509" y="551" width="120" height="160" fill="none" stroke="#578dff" stroke-width="1.5" opacity="1"/>
		<line x1="509" y1="577" x2="629" y2="577" stroke="#578dff" stroke-width="1"/>
	</g>
	<text x="522" y="569.6" fill="#131114" font-family="Courier New" font-size="14">Utilisateur</text>
	<text x="514" y="595.6" fill="#3e3c42" font-family="Courier New" font-size="14">login</text>
	<line x1="514" y1="598" x2="557" y2="598" stroke="#3e3c42" stroke-width="1"/>
	<text x="514" y="613.6" fill="#3e3c42" font-family="Courier New" font-size="14">mdp</text>
	<text x="514" y="631.6" fill="#3e3c42" font-family="Courier New" font-size="14">nom</text>
	<text x="514" y="649.6" fill="#3e3c42" font-family="Courier New" font-size="14">prenom</text>
	<text x="514" y="667.6" fill="#3e3c42" font-family="Courier New" font-size="14">mel</text>
	<text x="514" y="685.6" fill="#3e3c42" font-family="Courier New" font-size="14">dateNaissance</text>
	<text x="514" y="703.6" fill="#3e3c42" font-family="Courier New" font-size="14">modo</text>
</g>
</svg>